<svg width="136" height="30" viewBox="0 0 136 30" fill="none" xmlns="http://www.w3.org/2000/svg">
<path d="M2 2.35742C3.13594 3.41696 9.40679 12.2364 10.6009 11.449C12.7862 10.008 13.6891 2.65322 13.7307 4.97571C13.7786 7.65782 13.8265 10.3399 13.8745 13.022C13.9031 14.6239 14.877 19.1566 12.9016 20.3269C10.3228 21.8547 1.46607 20.0814 6.61001 16.9588C9.15665 15.4129 12.217 14.5329 14.8827 13.14C18.7613 11.1132 18.6209 8.82181 19.7102 5.41266C20.6567 2.45038 23.1952 11.5492 23.2225 13.0725C23.264 15.395 25.1741 8.65738 25.439 6.34355C25.7567 3.56752 25.7749 12.1853 27.6292 14.4893C29.4461 16.7466 32.4626 8.61522 32.7023 7.79086C33.1292 6.32304 35.2079 2.72909 35.37 6.32917C35.4395 7.8741 34.6765 14.4992 37.3327 14.4517C40.8647 14.3886 46.2185 13.2078 48.0343 10.3448C48.8102 9.12153 48.4167 6.33837 48.1662 5.01273C47.9684 3.96605 46.6138 5.45521 46.4254 5.66927C44.7203 7.60581 44.1131 10.1128 44.2428 12.4791C44.4695 16.6136 52.2653 17.5299 55.8514 15.5347C57.4171 14.6637 57.8674 13.1057 60.0265 13.0671" stroke="white" stroke-width="2.6687" stroke-linecap="round"/>
<path d="M68.0089 2.15708C69.2118 5.98735 70.5949 9.84548 71.1379 13.7938C71.3532 15.3593 71.0106 10.6407 71.0534 9.06386C71.1012 7.29975 76.1756 0.556617 77.937 1.9796" stroke="white" stroke-width="2.6687" stroke-linecap="round"/>
<path d="M71.0499 8.95451C72.7548 11.2475 76.8618 11.0535 78.251 14.1826C78.4353 14.5978 78.7955 17.0349 78.8812 16.7546C79.6152 14.3548 80.5572 12.1186 81.8415 9.87647C82.6745 8.4221 83.6112 7.02017 84.2949 5.50905C84.5695 4.9021 84.9235 3.00183 84.9756 3.64781C85.5355 10.5781 85.2256 17.6306 85.3498 24.5791C85.3578 25.0231 85.3657 25.4671 85.3736 25.9111C85.3767 26.0833 85.386 26.5998 85.3829 26.4276C85.379 26.2101 85.3751 25.9927 85.3712 25.7752C85.3003 21.8064 85.2293 17.8376 85.1584 13.8688C85.1225 11.8629 83.5388 4.46788 86.423 2.91494C88.7536 1.6601 89.2667 11.0422 89.1499 12.03C89.0467 12.9033 85.7317 14.2573 89.3102 11.9183C92.4912 9.83922 94.0885 7.03659 94.3236 3.69824C94.5606 0.333669 93.7371 10.7919 95.6714 13.7353C97.3221 16.247 100.071 7.3102 100.148 6.34054C100.159 6.19992 100.287 3.2812 100.523 3.72338C101.864 6.23405 102.118 9.5945 102.591 12.2792C103.255 16.0524 105.121 23.9685 100.315 26.5957C94.7367 29.6452 91.1312 25.2161 93.9828 20.9442C96.5299 17.1285 101.262 18.569 102.553 13.7754C103.405 10.6085 103.727 7.13132 104.975 4.05167C105.816 1.97781 107.96 7.76482 108.033 8.07584C108.346 9.41304 108.576 16.6483 108.486 11.6027C108.459 10.1337 107.716 7.54931 108.975 6.31869C109.746 5.56536 111.176 1.95559 112.882 3.36648C115.22 5.2995 114.376 14.3131 114.327 11.5527C114.312 10.7635 114.865 4.30145 116.083 4.50572C119.241 5.0355 120.146 10.2985 120.184 12.3997C120.238 15.441 124.82 13.3716 126.375 11.9899C128.599 10.0144 128.145 6.5609 128.337 10.9759C128.394 12.2914 129.466 17.7443 132.503 15.2522C135.495 12.7963 133.966 1.58824 129.022 2.07185C125.828 2.38422 125.894 5.05076 125.931 7.10327C125.978 9.75162 126.756 10.0742 128.936 11.8354" stroke="white" stroke-width="2.6687" stroke-linecap="round"/>
</svg>
