<svg width="110" height="29" viewBox="0 0 110 29" fill="none" xmlns="http://www.w3.org/2000/svg">
<path d="M3.19643 8.37292C3.19643 11.937 3.19643 15.501 3.19643 19.065C3.19643 23.215 1.92188 17.2836 1.92188 15.7016C1.92188 12.5965 5.54125 15.383 7.65738 15.383C10.5068 15.383 10.2065 13.2771 10.2065 10.922C10.2065 8.92842 11.6543 14.809 12.2599 16.0203C14.432 20.3644 16.8606 19.2153 17.8538 14.7457C18.823 10.3843 21.0815 12.7218 23.1999 10.6034C23.2895 10.5137 20.9562 9.67822 20.4029 9.64748C18.7539 9.55587 18.3335 11.5912 17.7122 12.8339C16.7782 14.7019 16.8108 18.5795 17.8538 20.3396C19.1109 22.4609 22.13 24.583 23.5185 20.7644C24.4337 18.2477 23.9849 10.5094 25.1825 12.9047C25.8607 14.2611 27.7812 21.5742 29.3248 21.7558C31.7178 22.0373 35.5026 22.3319 36.4765 19.7023C37.1062 18.0023 37.6095 16.9351 37.6095 15.0998C37.6095 14.5457 37.3151 12.3058 37.6449 13.7898C38.1256 15.953 39.4875 21.1185 42.0704 21.1185C45.107 21.1185 46.5314 16.337 46.5314 13.7898C46.5314 10.4088 50.0272 20.1708 50.7091 21.4371C52.032 23.8941 56.8087 23.6554 58.144 21.1185C59.4075 18.7178 59.4052 16.2978 60.6931 14.1084C61.2992 13.0781 62.7023 12.4311 63.7379 11.9134C64.8097 11.3774 66.1135 11.9271 65.8975 11.8071C61.7496 9.50274 61.3826 13.9274 58.9937 16.6575C56.1117 19.9513 60.5793 21.9062 63.7379 21.7558C65.3039 21.6812 65.4919 18.6971 65.9683 17.6489C66.3353 16.8417 65.5684 14.8139 66.4286 15.0289C67.8692 15.3891 68.6614 23.4825 68.1634 25.2254C67.5366 27.4194 63.9071 27.4913 62.1447 27.4913C60.9741 27.4913 60.8387 26.2128 61.6136 25.4378C63.5844 23.4671 66.8409 22.8233 69.3318 21.7558C72.3749 20.4516 73.297 16.3827 73.297 13.4712C73.297 10.9637 74.8228 18.5877 76.8021 20.1272C78.837 21.7099 81.1294 22.2017 83.7767 21.7204C86.2481 21.271 86.0426 12.0213 86.0426 14.5333C86.0426 20.5161 94.2129 22.393 98.7882 22.393" stroke="white" stroke-width="2.6687" stroke-linecap="round"/>
<path d="M101.338 10.9204C102.171 10.9204 102.275 10.8837 102.612 11.5577" stroke="white" stroke-width="2.6687" stroke-linecap="round"/>
<path d="M107.71 21.1171C107.616 21.8713 107.07 21.7543 106.436 21.7543" stroke="white" stroke-width="2.6687" stroke-linecap="round"/>
<path d="M37.6089 3.27456C41.8662 3.74759 49.7172 10.733 49.7172 2" stroke="white" stroke-width="2.6687" stroke-linecap="round"/>
</svg>
