<svg width="266" height="222" viewBox="0 0 266 222" fill="none" xmlns="http://www.w3.org/2000/svg">
<path d="M23.3297 43.7446C84.6592 26.6177 150.28 19.5575 213.576 9.14135C218.273 8.36843 222.98 7.63685 227.656 6.78204C228.72 6.58757 231.874 5.99561 230.786 5.99561C228.056 5.99561 225.352 6.45479 222.65 6.78204C192.335 10.454 162.268 15.7695 132.221 20.6758C94.727 26.7978 57.2 32.7977 19.7313 39.026C15.7084 39.6947 11.2697 39.4544 7.68449 41.1231C-1.34929 45.3277 28.3344 40.3853 38.6621 40.0745C74.738 38.9892 182.683 42.0068 146.927 37.8463C106.038 33.0885 61.7885 38.7965 20.8265 41.1231C-8.62757 42.7961 79.7892 37.4559 108.909 33.3898C113.368 32.7672 117.812 32.0454 122.208 31.1616C123.542 30.8934 119.501 30.4968 118.14 30.6373C100.287 32.4798 82.6199 35.3771 65.1025 38.7638C59.8459 39.7801 44.2846 43.3991 49.6137 42.696C87.4741 37.7009 125.24 31.0391 162.572 23.8215C197.272 17.1129 168.012 19.8575 157.409 20.9379C131.51 23.5769 105.869 27.4781 80.2784 31.6859C76.4646 32.313 72.6429 32.9144 68.8574 33.652C66.2623 34.1576 74.2056 33.6114 76.8364 33.2587C107.242 29.183 137.23 23.1351 167.266 17.53C180.904 14.985 221.829 7.41041 208.256 10.1899C176.308 16.7326 144.259 23.0024 112.82 31.1616C101.92 33.9906 71.0014 39.7323 81.6864 43.0892C90.248 45.779 105.9 41.6474 115.011 41.6474C140.263 41.6474 126.518 95.004 126.119 107.446C125.533 125.709 124.95 143.965 124.711 162.234C124.589 171.54 124.711 143.622 124.711 134.316C124.711 103.82 124.711 12.3308 124.711 42.8271C124.711 69.8855 118.523 103.001 127.527 129.204C134.733 150.174 139.452 86.5004 140.982 64.7162C141.377 59.0844 141.734 42.5286 143.642 47.9389C149.247 63.8344 151.281 81.0053 155.063 97.2223C157.333 106.958 163.001 134.884 166.484 125.403C172.664 108.575 169.629 86.9714 169.769 69.697C169.847 60.1285 175.123 32.6841 169.456 40.992C160.676 53.8648 162.312 82.794 160.226 96.9601C158.463 108.931 158.356 122.265 155.688 134.185C153.266 145.007 155.717 112.161 155.375 101.154C154.791 82.3101 153.964 63.2699 151.308 44.531C149.033 28.4806 145.43 50.6559 144.893 52.7886C136.557 85.8979 111.221 184.729 125.024 152.928C129.063 143.623 128.477 128.246 129.092 118.98C130.429 98.8074 130.343 78.6183 130.343 58.4247C130.343 35.1811 129.698 104.918 130.343 128.155C130.917 148.817 140.866 94.0757 140.982 91.4551C141.657 76.2378 143.565 59.2253 141.295 44.0067C139.787 33.9002 137.022 64.0652 135.35 74.1535C132.797 89.5485 128.998 105.367 128.309 120.946C127.899 130.221 133.549 102.814 134.254 93.5522C135.243 80.5739 138.069 64.1846 135.35 51.0846C133.054 40.0282 132.456 73.4216 132.064 84.6393C131.344 105.284 130.654 126.431 133.159 147.03C133.361 148.685 132.629 152.241 134.567 151.88C136.704 151.482 135.746 148.329 135.975 146.506C136.634 141.28 136.914 136.025 137.227 130.777C138.352 111.93 138.792 93.0238 138.792 74.1535C138.792 53.9215 137.774 114.609 137.54 134.84C137.537 135.079 131.4 212.461 140.669 215.974C144.32 217.358 157.372 136.887 157.879 132.874C160.114 115.166 162.129 97.4105 163.824 79.6585C163.941 78.436 163.914 77.2007 164.137 75.9885C164.66 73.1384 164.069 81.7562 164.137 84.6393C164.681 107.721 172.907 176.354 174.776 153.321C176.192 135.86 172.315 117.29 169.613 100.106C168.512 93.104 167.395 86.1013 166.014 79.1342C164.89 73.4619 165.128 58.7337 160.069 62.6191C151.404 69.2738 153.671 101.48 153.342 108.757C152.784 121.067 152.872 128.131 152.872 139.559C152.872 141.438 152.872 135.801 152.872 133.923C152.872 113.563 152.872 93.2027 152.872 72.8427C152.872 68.4736 152.872 64.1045 152.872 59.7355C152.872 57.3325 152.872 64.5415 152.872 66.9445C152.872 87.3046 152.285 107.835 154.124 128.155C154.36 130.762 153.012 134.544 155.688 135.889C157.837 136.969 157.036 131.82 157.253 129.728C157.925 123.236 158.078 116.712 158.348 110.198C159.341 86.2174 159.62 62.2196 160.695 38.2395C160.811 35.6602 160.318 32.988 161.164 30.5062C164.002 22.1866 161.442 47.811 161.79 56.4586C161.981 61.1933 159.866 112.283 169.769 115.048C176.47 116.92 176.545 71.4565 176.34 71.532C170.193 73.7981 165.881 104.314 164.606 108.626C162.761 114.868 160.071 129.828 156.627 115.31C154.775 107.503 148.511 50.3583 136.601 49.2496C131.874 48.8096 133.159 84.7317 133.159 88.5715C133.159 95.9117 132.158 73.8271 133.316 66.5512C135.006 55.9336 133.843 44.0686 136.132 33.5209C136.912 29.926 177.814 30.5563 180.251 30.3751C201.241 28.8152 222.235 26.6441 242.989 23.5594C262.844 20.6081 253.719 20.1846 241.111 22.2486C213.07 26.8392 181.19 37.9774 152.559 37.9774C134.235 37.9774 187.563 28.7642 205.44 25.3944C230.492 20.6722 201.579 26.1107 194.176 27.7537C179.879 30.9265 136.806 38.5924 150.369 33.652C159.898 30.1812 169.301 26.4819 178.843 23.0351C186.968 20.1003 211.677 15.7889 203.093 13.991C193.598 12.0023 173.618 20.0354 163.824 22.3797C139.254 28.2608 214.993 20.2562 240.173 16.6125C246.592 15.6835 265.124 11.7143 258.634 11.2385C235.509 9.5433 209.619 14.8069 187.292 19.1029C158.159 24.7082 174.195 24.8701 191.672 24.8701C201.292 24.8701 251.469 22.8063 216.705 29.5887C210.54 30.7914 154.655 41.71 187.292 36.9288C204.198 34.452 221.343 31.8285 237.826 27.7537C255.368 23.4171 223.876 25.3833 223.745 25.3944C211.433 26.439 199.662 28.744 188.23 32.7345C186.41 33.3699 175.875 36.8527 185.414 36.1423C200.171 35.0434 215.032 32.5308 229.534 30.113C234.039 29.362 238.556 28.6298 242.989 27.6226C250.922 25.8202 248.673 25.307 241.581 25.6565C216.117 26.9114 141.165 37.5383 166.64 38.6327C186.153 39.4711 210.474 39.4552 228.908 34.3073" stroke="white" stroke-width="11.9998" stroke-linecap="round"/>
</svg>
