<svg width="229" height="300" viewBox="0 0 229 300" fill="none" xmlns="http://www.w3.org/2000/svg">
<path d="M56.8275 6.54626C79.5663 76.7674 75.4736 148.139 77.1577 220.763C77.7933 248.168 83.7205 239.655 76.8112 225.011C57.3873 183.843 94.939 139.633 118.44 111.497C134.263 92.5535 159.837 22.5111 153.44 46.3181C143.412 83.6361 125.754 115.058 107.612 148.838C97.5285 167.613 93.62 189.077 88.1309 209.505C84.8555 221.695 109.258 214.723 129.791 223.067C151.198 231.767 216.694 259.901 222.643 288.663C227.249 310.932 127.324 243.102 123.932 240.435C65.0037 194.107 41.0556 166.752 39.9619 95.934C39.89 91.2793 44.301 46.645 42.2399 63.7926C35.4003 120.698 32.8582 186.345 41.7196 243.205C50.9368 302.348 59.3697 124.795 63.3425 65.1222C64.2251 51.8652 68.2198 12.2056 66.8572 25.4207C62.8377 64.4029 58.6472 103.368 56.0664 142.486C55.2464 154.914 62.6557 271.102 61.9872 209.189C61.6833 181.04 57.76 152.312 53.7462 124.499C51.0899 106.092 40.2564 54.7393 34.0101 72.236C17.0908 119.629 31.8461 197.578 39.2481 246.487C43.7799 276.431 57.9002 188.904 65.7504 159.689C76.177 120.886 144.936 21.7646 134.509 60.5678C125.929 92.4993 106.223 159.398 72.0247 174.792C40.0021 189.207 103.519 111.34 127.043 85.3958C153.08 56.6809 143.274 82.7757 129.092 102.915C109.613 130.576 52.0335 210.737 60.8056 178.091C72.742 133.669 196.335 247.377 208.785 258.894C247.48 294.69 162.335 246.666 152.472 242.184C113.512 224.481 74.9313 205.907 36.5633 186.967C26.5746 182.036 15.6048 178.491 6.93766 171.509C4.14425 169.259 14.0453 172.63 17.5135 173.561C57.5792 184.327 139.036 205.996 148.418 251.355" stroke="white" stroke-width="11.9998" stroke-linecap="round"/>
</svg>
