<svg width="195" height="219" viewBox="0 0 195 219" fill="none" xmlns="http://www.w3.org/2000/svg">
<path d="M130.017 23.6362C135.443 14.6012 179.47 87.6341 167.377 66.854C152.875 41.9331 148.922 11.8495 116.909 11.8495C72.7301 11.8495 69.7558 51.8017 54.642 87.8081C40.895 120.558 53.028 152.827 86.103 169.66C110.258 181.954 143.863 176.863 169.999 176.863C207.131 176.863 129.549 176.863 119.53 176.863C97.3753 176.863 67.403 181.95 53.3311 160.493C38.2715 137.529 44.5395 81.3851 47.4322 54.4125C48.7881 41.769 103.789 21.2287 118.219 19.0525C140.603 15.677 181.62 20.8671 187.696 48.5192C198.262 96.6088 141.1 16.9502 130.017 10.5399C111.193 -0.348154 80.826 16.2948 63.8181 26.2554C39.3401 40.591 25.5619 51.825 19.2484 81.26C11.1052 119.226 30.8879 135.467 59.2301 154.599C77.4029 166.867 102.411 176.627 124.118 181.447C134.791 183.816 156.89 182.756 156.89 182.756C156.89 182.756 129.362 182.756 115.598 182.756C88.4117 182.756 63.1977 180.177 36.2897 177.19C2.14053 173.4 6.13962 123.063 6.13962 97.6304C6.13962 53.4566 18.5934 51.0709 64.1458 39.0243C84.0403 33.7632 109.571 33.156 130.345 35.7503C137.831 36.6851 153.336 52.1788 148.697 51.4658C131.629 48.8425 116.521 31.743 103.8 21.3443C95.3899 14.47 74.7151 16.9334 64.4736 18.0702C3.92153 24.7919 30.5149 126.169 50.7094 159.183C69.9722 190.674 105.592 228.506 144.437 206.33C154.573 200.543 171.826 194.543 150.664 194.543C127.286 194.543 103.909 194.543 80.5318 194.543C59.9671 194.543 30.73 196.348 21.2147 173.262C11.3249 149.266 7.62465 105.884 12.694 79.2955C16.9752 56.8406 48.5742 29.5295 72.0111 29.5295C106.665 29.5295 114.166 49.7886 141.815 58.9962" stroke="white" stroke-width="11.9998" stroke-linecap="round"/>
</svg>
