<svg width="172" height="202" viewBox="0 0 172 202" fill="none" xmlns="http://www.w3.org/2000/svg">
<path d="M44.3971 16.1518C43.9668 35.8871 26.7435 153.447 26.7025 153.376C8.91665 122.341 25.9602 67.6639 38.4989 36.4087C40.2646 32.0071 44.3492 6.06996 51.606 7.00359C79.6112 10.6066 112.193 66.9705 125.334 86.3973C143.005 112.523 159.892 140.323 162.361 172.326C163.269 184.093 171.768 187.736 159.084 174.286C127.737 141.045 102.305 103.856 72.5774 69.4077C60.7412 55.6922 47.6662 46.4035 38.4989 30.5277C28.4847 13.1852 31.8013 53.5491 31.6176 55.6853C27.6046 102.367 14.237 147.461 9.33552 193.889C7.57879 210.53 4.61516 122.611 6.7141 107.961C7.94899 99.342 19.2914 14.1754 41.1203 23.3398C86.3012 42.3079 97.2406 104.541 116.486 142.92C117.264 144.471 129.554 153.004 118.78 149.782C88.8249 140.821 66.3319 109.261 48.6569 85.4172C32.5798 63.7292 26.7025 34.8671 26.7025 82.8034C26.7025 111.758 26.1931 140.762 26.7025 169.712C27.0495 189.437 32.8705 179.974 29.9792 163.831C28.0418 153.013 6.9569 -18.3665 65.3685 46.8638C73.7968 56.2761 156.013 193.031 162.361 186.701" stroke="white" stroke-width="11.9998" stroke-linecap="round"/>
</svg>
