<svg width="221" height="251" viewBox="0 0 221 251" fill="none" xmlns="http://www.w3.org/2000/svg">
<path d="M21.4852 57.8073C30.7572 90.2593 46.2254 118.72 62.846 147.937C64.5326 150.902 82.28 184.953 71.7972 163.987C56.2051 132.803 40.4544 101.772 23.3371 71.3884C2.74448 34.8365 23.415 95.6086 26.1151 104.107C40.254 148.607 57.9118 192.561 76.7358 235.288C77.8398 237.794 78.9689 240.295 80.2854 242.696C82.8341 247.344 82.1003 243.66 81.3658 240.844C77.0542 224.317 70.496 207.976 64.3893 192.076C50.9765 157.152 33.8852 123.935 16.5466 90.8342C14.9158 87.7209 13.48 86.107 15.4662 91.7602C20.1671 105.139 26.7331 117.937 33.523 130.343C43.2531 148.121 54.0259 165.314 64.235 182.816C66.719 187.074 72.7252 199.181 68.4019 185.285C56.7321 147.775 42.711 110.138 27.6584 73.8577C25.0076 67.4686 17.1639 49.0381 17.1639 55.9553C17.1639 64.9774 27.1789 79.8991 30.7451 86.8216C48.4624 121.214 68.6824 154.262 86.3044 188.68C88.5582 193.082 101.554 216.702 93.4036 197.323C82.8368 172.197 70.6532 146.074 57.2901 122.318C37.3486 86.8664 79.5344 201.068 97.7249 237.449C107.831 257.661 80.9325 195.171 76.8902 172.939C71.5419 143.523 60.3366 114.547 48.1845 87.4389C44.5764 79.3899 23.9282 62.117 27.5041 53.1773C35.0425 34.3314 52.0271 24.4717 70.8712 24.4717C76.5122 24.4717 86.4511 23.2171 73.6492 25.7063C59.2495 28.5063 45.1672 32.3106 31.2081 36.8182C29.4867 37.374 9.5845 42.3441 7.28668 46.0781C5.0732 49.675 15.7184 46.6954 19.9419 46.6954C30.729 46.6954 41.6999 46.8977 52.3515 44.8434C70.1964 41.4019 83.3705 30.9204 98.3422 21.6937C110.226 14.3697 151.274 3.96884 137.851 7.80388C118.092 13.4494 99.7525 25.8895 81.9831 35.8922C81.7783 36.0075 53.4752 51.6822 69.0193 48.856C94.4597 44.2305 117.108 29.5553 142.79 25.089C154.241 23.0974 120.929 33.4651 111.152 39.7505C103.25 44.83 96.4808 51.6688 90.9343 59.1963C81.5663 71.9101 71.563 71.6971 56.6727 71.6971C55.0415 71.6971 42.7043 70.9703 43.0916 72.7774C46.5992 89.1464 55.1417 104.476 58.5247 121.083C59.6611 126.662 61.2986 162.098 71.1799 155.653C93.1701 141.312 117.889 135.945 142.327 127.256C148.611 125.022 181.324 109.95 154.982 115.219C133.057 119.604 112.511 128.702 97.5706 145.776C86.713 158.185 98.4777 145.431 103.744 141.764C109.915 137.465 144.461 112.352 152.667 119.386C158.228 124.152 123.64 141.146 121.492 141.918C110.563 145.845 76.2476 150.814 86.9217 146.239C95.7709 142.447 116.249 129.476 125.813 131.269C129.89 132.033 120.568 137.842 117.171 140.22C108.209 146.493 98.3663 150.831 88.7737 155.962C78.555 161.428 84.7102 169.298 87.539 178.803C91.4095 191.808 99.2682 205.538 99.2682 218.929C99.2682 224.485 99.2682 230.041 99.2682 235.597C99.2682 244.112 113.855 229.054 117.788 226.646C135.722 215.663 156.933 197.664 178.286 194.545C212.676 189.522 152.466 224.255 146.185 227.572C144.8 228.303 109.636 243.525 117.325 237.758C137.918 222.313 167.206 215.354 191.558 208.589C198.255 206.729 204.564 205.039 211.467 205.039C227.378 205.039 180.328 211.598 164.705 214.608C149.575 217.523 133.346 221.707 117.788 221.707C101.591 221.707 149.884 217.01 165.631 213.219C175.359 210.877 201.943 208.735 208.998 199.329C212.082 195.217 212.959 193.928 207.609 193.928" stroke="white" stroke-width="11.9998" stroke-linecap="round"/>
</svg>
