<svg width="215" height="268" viewBox="0 0 215 268" fill="none" xmlns="http://www.w3.org/2000/svg">
<path d="M161.148 14.8153C142.145 36.104 117.196 51.3828 93.1061 66.2885C69.2334 81.0598 124.212 44.2093 126.657 42.6169C167.203 16.2026 186.414 -22.0952 196.261 41.4572C203.796 90.0837 203.092 136.609 194.527 185.094C191.524 202.096 190.676 251.912 184.303 235.87C178.728 221.839 186.107 186.49 185.811 171.426C185.148 137.745 186.994 104.587 187.261 71.0911C187.746 10.2561 168.055 30.9533 121.692 52.572C96.3876 64.3712 20.1912 130.384 69.5141 74.85C83.7404 58.8323 115.656 28.9264 139.326 28.4236C150.861 28.1786 126.695 47.8465 119.01 56.4555C104.219 73.0249 88.7802 89.0248 74.3419 105.909C61.5923 120.818 52.7062 134.467 70.5892 108.575C87.8174 83.6308 108.194 43.9622 137.215 30.7891C170.116 15.8541 172.736 102.78 174.12 113.639C176.421 131.699 197.409 223.538 154.601 198.626C112.968 174.397 4.16811 78.4732 43.8038 105.849C81.2319 131.699 120.127 145.681 158.378 168.253C203.788 195.048 146.637 159.665 132.723 150.055C115.4 138.091 95.4136 131.939 77.5881 120.579C46.5342 100.788 26.9395 94.2009 70.0064 123.946C111.975 152.933 156.409 179.442 192.715 215.39C230.599 252.901 189.183 223.467 167.094 208.21C137.118 187.507 103.795 173.096 74.1109 152.593C61.3628 143.788 44.9521 127.146 28.7516 125.567C15.0164 124.228 48.3611 202.568 52.2108 216.816C61.9945 253.025 54.0816 267.515 38.7884 223.797C29.6801 197.76 2.63212 144.705 20.0174 119.534C43.4681 85.5809 38.6507 194.483 41.0122 208.125C42.3377 215.782 45.9705 231.948 55.9569 234.221C57.0083 234.46 33.4289 171.736 31.1264 166.403C16.8362 133.304 -18.7646 79.8422 34.7866 116.829C57.5387 132.543 80.2908 148.257 103.043 163.972C114.149 171.643 203.386 224.843 189.384 245.116C187.242 248.218 142.322 235.967 137.849 235.334C112.852 231.795 95.8886 238.16 132.708 242.777C238.021 255.984 114.779 234.378 119.744 261.547" stroke="white" stroke-width="11.9998" stroke-linecap="round"/>
</svg>
