<svg width="406" height="391" viewBox="0 0 406 391" fill="none" xmlns="http://www.w3.org/2000/svg">
<path d="M108.96 84.0412C155.598 130.223 182.971 177.208 226.986 223.526C251.419 249.237 168.91 175.479 146.865 149.273C145.019 147.077 107.798 96.6312 107.894 96.6727C135.978 108.833 223.253 235.154 243.895 263.478C269.316 298.361 253.283 277.823 233.014 255.084C201.782 220.048 166.654 186.201 135.15 151.335C110.486 124.038 51.0526 32.0616 102.065 121.102C119.423 151.401 172.302 239.608 222.811 262.686C247.722 274.068 183.264 221.149 164.788 200.097C149.83 183.055 135.947 167.169 117.763 151.375C93.7 130.476 168.54 190.547 193.928 210.132" stroke="white" stroke-width="11.9998" stroke-linecap="round"/>
<path d="M310.909 227.234C280.75 243.818 210.489 310.238 221.609 278.309C236.277 236.191 319.753 229.196 365.894 225.327C424.235 220.437 340.124 242.091 329.214 245.691C287.05 259.599 235.088 290.155 178.368 275.303C167.026 272.333 218.857 224.131 225.824 219.41C253.186 200.875 295.023 198.897 320.477 179.209C352.094 154.754 268.635 242.192 263.933 246.881C251.725 259.053 209.126 289.847 220.482 276.957C243.424 250.918 280.952 235.057 312.408 217.791C336.905 204.344 391.069 157.072 351.23 208.715C343.489 218.749 298.692 276.818 305.794 267.612C325.677 241.838 345.56 216.064 365.443 190.29C388.277 160.691 319.774 249.49 296.94 279.089C275.142 307.346 188.622 370.092 200.7 335.41C209.684 309.614 223.63 288.819 240.293 268.151C247.19 259.595 297.622 214.954 268.491 248.471C250.417 269.267 191.51 281.246 184.814 307.256C183.71 311.547 196.71 310.618 201.274 309.355C238.751 298.988 273.852 283.903 308.514 269.71C355.811 250.345 364.521 238.123 385.479 199.002C401.219 169.623 358.595 200.984 350.581 205.806C324.773 221.333 297.473 233.926 276.432 254.115C262.007 267.955 242.72 291.973 220.67 297.337C178.7 307.548 270.076 238.828 298.731 213.022C301.714 210.335 336.526 179.283 325.129 190.989C297.377 219.493 252.751 283.156 203.417 285.955C165.002 288.134 247.417 239.401 275.256 221.892C301.895 205.136 339 167.197 301.363 221.797C281.845 250.112 261.006 294.827 225.102 308.465C204.184 316.411 226.327 286.255 228.176 283.857C237.963 271.171 267.321 233.115 257.535 245.8C236.234 273.412 211.702 297.786 185.997 321.659" stroke="white" stroke-width="11.9998" stroke-linecap="round"/>
</svg>
