<svg width="165" height="226" viewBox="0 0 165 226" fill="none" xmlns="http://www.w3.org/2000/svg">
<path d="M40.2113 110.85C68.4784 117.162 55.5281 186.887 59.4691 208.669C62.3855 224.789 97.7135 219.116 109.539 218.522C118.766 218.058 131.894 212.642 138.251 205.854C145.701 197.9 103.988 199.521 100.436 199.521C46.5105 199.521 106.495 202.668 125.646 199.169C137.341 197.032 147.014 189.198 158.909 187.205C160.747 186.898 121.863 186.854 112.34 186.854C47.4803 186.854 132.289 192.021 149.455 180.52C158.278 174.609 80.1508 175.878 75.2254 170.668C47.3617 141.193 65.7573 82.8594 41.6119 54.5507C21.9633 31.5142 62.7591 113.851 58.7688 143.926C57.7965 151.254 36.6951 92.0437 34.6091 84.1078C17.7281 19.8857 33.7531 86.3306 37.4102 113.665C46.1496 178.985 35.0687 80.436 34.259 63.3475C32.0354 16.4214 60.3635 101.104 62.6204 109.442C63.6611 113.287 79.1847 178.073 67.5223 155.889C46.9128 116.686 29.2368 78.6519 12.5502 37.661C-6.54307 -9.24182 28.3215 138.133 43.3626 186.502C57.795 232.913 60.9632 200.141 57.7184 166.445C54.8543 136.703 22.5385 78.5225 52.8164 55.2545C81.2572 33.3983 78.5186 34.8461 43.3626 34.8461C10.877 34.8461 82.3319 36.0755 94.133 34.4942C124.385 30.4407 145.741 22.1788 103.237 22.1788C84.5607 22.1788 28.8883 28.5124 47.5643 28.5124C73.7934 28.5124 93.5894 22.1001 115.842 10.919C142.399 -2.42528 56 21.1248 30.4074 36.2536C23.587 40.2854 51.1932 41.1317 52.8164 41.1797C65.4814 41.5541 65.4215 46.0111 65.4215 57.0138C65.4215 77.0073 31.7261 57.7028 44.0629 89.3858C52.6356 111.402 61.4233 137.966 84.3291 147.444C90.7395 150.097 95.9288 136.723 100.436 133.018C109.525 125.544 140.253 125.529 131.948 117.183C117.429 102.593 50.141 123.517 70.6736 123.517C82.3723 123.517 160.815 104.516 124.245 104.516C55.9017 104.516 132.682 96.2075 131.948 93.2564C125.793 68.5156 25.5482 117.346 89.2311 96.775C150.693 76.9219 46.7078 90.2107 29.7071 95.0157C-12.6973 107.001 35.2175 156.375 46.5139 174.538C60.3039 196.711 50.8721 199.521 79.4271 199.521C99.9687 199.521 120.51 199.521 141.052 199.521" stroke="white" stroke-width="11.9998" stroke-linecap="round"/>
</svg>
