<svg width="289" height="229" viewBox="0 0 289 229" fill="none" xmlns="http://www.w3.org/2000/svg">
<path d="M6.97266 15.0272C54.4624 15.0272 102.028 15.7194 149.51 15.0272C159.543 14.881 202.14 6.97388 169.278 6.97388C134.067 6.97388 101.266 14.5528 67.3168 21.2909C52.7398 24.1841 37.4272 23.0805 22.5789 23.0805C-1.00387 23.0805 69.7444 23.0805 93.3272 23.0805C126.89 23.0805 240.156 20.3526 142.227 32.9235C117.545 36.0917 91.4246 43.2707 67.3168 49.0301C54.1527 52.1751 17.6417 58.0922 29.8618 63.3472C56.1247 74.6409 121.707 63.3472 152.631 63.3472C164.695 63.3472 234.375 63.3472 199.45 63.3472C169.624 63.3472 139.799 63.3472 109.974 63.3472C99.6819 63.3472 37.906 59.2987 77.2007 55.7412C139.49 50.1021 322.966 70.7684 264.996 50.3724C224.758 36.2151 93.0298 31.1339 136.504 31.1339C171.358 31.1339 206.212 31.1339 241.066 31.1339C279.201 31.1339 109.53 31.1339 134.944 31.1339C146.554 31.1339 237.455 23.0805 203.611 23.0805C178.309 23.0805 156.513 21.4047 167.197 51.2672C182.618 94.3718 207.829 125.67 212.455 173.409C212.756 176.521 191.908 96.9059 184.884 72.7427C180.575 57.9197 175.52 151.618 175.52 170.725C175.52 192.694 167.146 127.369 161.995 105.851C154.726 75.4858 155.822 84.0487 157.313 110.325C159.389 146.925 167.406 182.23 175 218.15C180.012 241.861 159.828 171.524 147.949 149.697C139.765 134.66 128.701 86.116 128.701 102.719C128.701 123.004 134.14 183.071 127.661 163.566C116.704 130.584 109.974 96.7734 109.974 62.4524C109.974 38.8998 124.713 107.99 128.181 131.353C129.243 138.51 130.367 200.361 142.747 202.491C149.228 203.606 147.239 122.607 145.348 113.457C137.968 77.7532 139.526 146.735 140.146 152.829C145.534 205.792 123.016 145.594 116.216 126.879C89.8624 54.3483 141.197 247.099 126.621 123.3C116.801 39.8984 132.041 249.116 115.176 186.832C102.981 141.794 79.4509 91.7734 91.7666 44.1087C92.7677 40.234 225.631 31.1339 246.268 31.1339C379.706 31.1339 95.235 47.2405 241.066 47.2405" stroke="white" stroke-width="11.9998" stroke-linecap="round"/>
</svg>
