<svg width="130" height="231" viewBox="0 0 130 231" fill="none" xmlns="http://www.w3.org/2000/svg">
<path d="M56.5846 21.3407C55.0414 69.1756 43.3856 116.854 32.0322 163.617C29.5075 174.016 26.7407 184.353 26.2459 164.665C25.2194 123.817 28.6673 82.5297 35.0035 42.0402C38.1994 21.6181 44.8803 -5.41716 76.2891 11.122C94.6564 20.7938 120.445 59.0824 95.9936 74.0065C81.0771 83.1109 52.9178 81.1148 35.4727 82.6532C17.8766 84.2048 46.4101 86.7431 49.3909 86.8455C73.9779 87.6896 98.4958 82.3233 98.4958 58.4164C98.4958 48.213 95.7883 38.5739 87.5488 30.9044C77.4585 21.5122 60.3142 22.2729 46.576 25.271C15.7309 32.0025 17.4884 66.3017 17.4884 87.3695C17.4884 111.508 22.1518 135.331 22.8055 159.425C22.8706 161.827 24.9724 168.578 25.6204 166.237C29.9792 150.49 28.2721 132.976 28.4353 116.978C28.6981 91.2272 31.0585 66.4351 36.7237 41.1232C39.2203 29.9686 50.7586 26.1205 63.4656 24.747C87.5406 22.1446 113.564 23.8415 119.764 45.8395C127.359 72.7877 125.877 102.248 87.5488 107.021C77.1193 108.32 7.77929 114.521 53.6133 104.794C71.4094 101.017 111.985 96.4796 117.888 77.9368C122.135 64.593 118.221 39.4377 106.471 29.5943C91.1157 16.7303 50.8033 24.185 32.8141 28.4153C20.4633 31.3196 17.1756 32.5428 17.1756 42.8263C17.1756 68.3196 22.4832 93.8974 18.7395 119.336C15.3755 142.194 7.60181 164.397 6.07228 187.461C5.45968 196.698 8.50572 166.28 9.35637 162.831C14.2378 143.039 19.3136 124.444 21.2416 104.139C22.9969 85.6534 19.6986 62.6379 26.0896 44.7914C30.8355 31.5387 59.8644 30.0517 72.8487 28.4153C93.3203 25.8352 100.164 30.9962 105.377 48.0667C107.901 56.3333 108.777 67.6541 106.628 76.1027C101.543 96.092 60.5288 89.1874 43.4483 90.2517C6.61979 92.5465 49.5224 106.506 63.4656 106.235C91.617 105.686 123.073 79.7284 99.7469 56.7133C87.767 44.8931 65.6589 47.2806 49.2345 47.2806C36.8347 47.2806 34.1746 45.3483 34.0652 56.7133C33.6016 104.874 34.0652 153.054 34.0652 201.217C34.0652 210.518 34.0652 238.423 34.0652 229.122C34.0652 221.567 34.0652 214.012 34.0652 206.457C34.0652 162.045 34.0652 117.633 34.0652 73.2205C34.0652 63.0674 25.7631 27.4435 42.1972 21.6028C64.5731 13.6503 96.0678 23.7929 111.007 38.372C129.042 55.9731 129.478 91.9903 104.751 105.973C88.5936 115.109 66.3423 113.309 47.8271 113.309C31.7966 113.309 81.2279 112.505 95.0553 105.711C113.123 96.8329 107.068 76.142 100.06 63.0017C95.888 55.1801 91.7379 42.0015 79.7296 42.6953C35.0226 45.2782 26.686 85.4254 25.7768 114.75C25.0342 138.702 25.6204 162.716 25.6204 186.675C25.6204 188.116 25.6204 192.439 25.6204 190.998C25.6204 176.15 25.6204 161.302 25.6204 146.455C25.6204 112.98 20.579 75.813 29.6864 42.8263C31.8561 34.9679 38.0898 18.543 47.0451 13.3492C62.0561 4.64326 89.0442 30.1448 95.3681 38.372C105.681 51.7891 123.011 74.1316 117.888 91.2998C111.6 112.368 66.3432 120.022 46.1068 126.803C19.3202 135.779 49.9229 125.666 57.5229 118.026C63.8541 111.661 102.237 34.6525 80.6679 33.2626C21.3153 29.4378 30.159 81.2992 39.695 115.537C43.8035 130.287 45.3249 144.329 45.3249 159.425C45.3249 162.521 45.3249 170.093 45.3249 162.831" stroke="white" stroke-width="11.9998" stroke-linecap="round"/>
</svg>
