<svg width="185" height="205" viewBox="0 0 185 205" fill="none" xmlns="http://www.w3.org/2000/svg">
<path d="M38.2138 91.5196C45.8215 121.839 49.1303 152.966 59.867 182.745C63.7279 193.453 127.479 163.452 142.805 162.545C166.976 161.115 100.284 183.062 76.7771 187.983C63.3759 190.789 53.0246 188.48 49.3398 176.17C42.3617 152.857 47.468 126.325 44.3731 102.386C42.5957 88.637 39.1732 75.3015 35.1632 61.9047C31.375 49.2488 39.4365 76.1812 39.5761 76.6479C47.4697 103.019 52.1924 132.313 65.3291 157.29C69.2403 164.727 73.5514 170.732 75.8998 178.578C77.167 182.811 78.5902 196.742 84.6079 197.959C91.0484 199.262 103.846 193.017 108.467 191.344C129.388 183.765 149.919 175.102 172.14 170.45C204.136 163.751 107.891 183.42 75.1809 186.967C68.4273 187.699 33.212 190.889 28.9772 184.755C26.3422 180.938 31.257 173.802 32.7715 170.454C37.7049 159.549 39.3811 149.253 38.7627 137.596C37.1376 106.959 25.1253 76.9274 16.2739 47.3559C15.8853 46.0575 11.2289 36.3227 14.6355 34.8681C23.0748 31.2643 40.7755 33.9632 50.2747 32.5392C63.3836 30.5741 102.099 22.2299 89.1796 24.9346C81.0238 26.642 72.868 28.3494 64.7122 30.0569C50.7815 32.9733 36.8507 35.8898 22.92 38.8062C21.7864 39.0436 6.25415 40.8578 7.1536 43.8628C9.18582 50.6522 18.9527 58.8091 22.8537 65.0219C43.8075 98.3942 51.5758 136.161 62.447 172.48C65.5031 182.69 56.3348 152.06 53.2787 141.85C47.9382 124.008 49.7736 118.474 73.7859 113.246C82.8035 111.282 92.8817 109.114 102.281 109.171C113.667 109.24 80.3488 114.303 69.3036 116.615C62.7688 117.983 56.2341 119.351 49.6993 120.719C46.0013 121.494 36.6451 125.776 38.6054 123.042C41.5519 118.932 63.7536 112.359 68.959 109.529C93.7566 96.0487 124.121 97.5476 149.539 85.7711C176.036 73.4953 91.0166 99.2834 61.0916 103.208C46.1339 105.169 102.257 85.4053 64.8875 93.2287C63.8941 93.4367 40.5459 98.1492 52.5011 93.931C59.7409 91.3765 82.132 87.4073 74.346 86.5214C67.653 85.7599 52.8963 94.6595 46.8007 91.0726C36.5156 85.0203 27.6309 62.5062 27.0284 51.9925C25.6414 27.7896 44.155 63.0716 47.4004 68.797C48.2335 70.2668 61.3136 92.0544 59.6412 85.413C57.8912 78.4638 55.5027 71.5869 53.4402 64.6963C52.3351 61.0042 59.8391 86.0742 55.2282 70.6698C49.0959 50.1823 52.1157 60.2712 56.1032 73.593C57.4601 78.1261 53.3895 64.5268 52.0326 59.9937C48.2166 47.2449 78.573 45.3876 88.654 42.0623C92.2981 40.8602 107.425 35.8179 92.8323 38.7564C68.06 43.7447 43.3879 49.1078 18.6702 54.2825C7.23557 56.6764 32.083 48.6774 33.0304 48.3048C41.5959 44.9366 50.2235 41.7047 58.8259 38.4474C60.8645 37.6755 73.298 29.7447 70.6393 29.3563C51.7491 26.5966 57.3064 38.7661 60.1594 48.2978C71.3947 85.8337 105.101 198.441 93.8653 160.905C90.8603 150.866 83.1507 130.135 88.9992 153.82C90.2043 158.701 96.8669 171.927 92.5762 168.468C83.4859 161.142 78.4099 146.873 72.693 137.65C70.489 134.095 65.0338 123.511 64.9761 127.516C64.8015 139.645 71.0771 152.754 74.5647 164.406C77.1566 173.065 76.1173 177.915 88.1334 175.746C113.986 171.081 139.566 165.114 165.221 159.743C169.873 158.769 182.772 155.024 169.781 159.869C146.677 168.484 123.606 177.346 101.284 187.31C101.267 187.318 83.3362 194.992 93.8764 191.157C98.4817 189.481 112.473 187.639 107.743 186.228C102.473 184.655 93.0609 186.641 87.6054 186.392C70.6142 185.617 48.9493 182.094 38.0907 169.881C27.2882 157.731 24.3361 136.148 23.8623 121.266C23.5601 111.774 25.8408 108.137 37.4601 108.425C68.8866 109.204 110.987 112.743 140.578 101.153C142.566 100.375 149.146 97.5634 141.869 98.9922C124.031 102.494 106.302 106.438 88.5271 110.16C72.1959 113.579 150.58 88.3146 134.838 93.306C124.824 96.4812 114.755 99.3872 104.444 101.83C101.359 102.561 75.6347 107.996 93.6924 104.216C105.546 101.734 141.108 94.2894 129.254 96.7711C115.817 99.5841 101.607 102.453 87.6884 102.502C55.163 102.615 52.8201 72.3362 46.7483 52.0509C43.1981 40.1903 91.7691 36.5479 100.658 34.687C111.499 32.4175 144.021 25.6089 133.18 27.8784C122.542 30.1055 111.904 32.3326 101.266 34.5597C91.3285 36.6402 45.903 46.1502 81.5095 38.6958C92.6541 36.3626 126.088 29.3632 114.943 31.6963C102.482 34.3052 90.02 36.9141 77.5583 39.523C76.9264 39.6553 57.8248 45.4664 59.2066 40.2586C62.4983 27.8522 84.1569 17.4196 95.4057 10.6653C112.602 0.339704 100.544 12.074 94.268 16.576" stroke="white" stroke-width="11.9998" stroke-linecap="round"/>
</svg>
