<svg width="251" height="256" viewBox="0 0 251 256" fill="none" xmlns="http://www.w3.org/2000/svg">
<path d="M79.9966 6.22364C66.135 33.9702 -6.84187 168.685 9.58778 176.414C37.6964 189.638 69.4488 195.915 98.2748 207.753C118.084 215.887 131.414 235.931 151.014 244.716C155.641 246.79 162.981 256.579 169.076 240.536C181.183 208.668 191.729 178.329 206.494 146.247C217.653 122 253.913 49.9699 241.912 73.9911C228.823 100.192 215.733 126.394 202.643 152.595C197.53 162.83 183.996 197.028 175.323 203.2C165.051 210.51 152.55 215.299 142.226 225.908C131.335 237.099 128.427 230.9 120.732 225.392C112.741 219.672 77.3546 211.523 80.7371 191.833C84.9313 167.418 119.094 111.652 132.244 85.3307C145.631 58.5339 105.47 138.924 92.0825 165.721C90.9421 168.004 89.8017 170.287 88.6613 172.569C87.7688 174.356 90.4463 168.996 91.3387 167.21C104.544 140.777 116.582 114.498 128.003 87.6959C131.077 80.483 134.064 73.2648 137.118 66.0506C139.865 59.5611 149.692 44.7001 145.48 46.5906C136.205 50.7534 131.324 74.7715 124.647 88.9712C119.512 99.892 89.7346 182.016 99.9685 162.182C109.02 144.639 117.636 126.818 126.445 109.184C130.215 101.638 141.325 79.0103 138.039 86.6563C130.14 105.04 99.3628 165.755 100.047 180.395C100.33 186.455 109.815 166.283 113.666 158.575C126.372 133.142 137.941 107.344 150.009 81.7461C156.805 67.3306 163.701 52.9788 170.85 38.6689C182.246 15.8582 150.67 84.8849 141.132 108.02C128.691 138.195 115.864 168.939 105.35 199.034C100.141 213.944 100.986 215.058 108.533 200.146C130.383 156.969 151.772 113.594 173.386 70.3303C194.484 28.0979 118.446 161.47 115.526 198.393C113.288 226.702 123.826 234.987 137.352 245.188C152.081 256.295 177.19 228.687 192.831 196.728C199.16 183.797 217.95 146.46 215.322 136.742C214.52 133.779 209.694 145.478 207.611 150.134C197.243 173.313 186.603 197.256 178.608 220.435C164.379 261.694 186.394 219.268 194.502 202.908C210.989 169.641 229.069 131.249 239.313 97.5631C246.861 72.7412 211.95 146.213 199.522 171.089C185.23 199.698 168.09 231.742 194.577 184.049C200.986 172.509 221.801 127.759 208.329 163.325C205.044 171.997 189.897 223.866 181.991 229.311C171.131 236.792 153.408 220.723 145.949 218.116C137.798 215.268 129.648 212.42 121.497 209.572C97.95 201.344 77.1794 187.792 53.7138 179.593C49.8837 178.254 27.256 175.871 30.0263 167.818C41.3669 134.857 39.332 106.354 53.3654 72.4572C56.3244 65.3101 74.5822 29.3076 61.1084 56.278C48.0386 82.4395 21.5961 124.983 15.5555 150.522C10.517 171.823 38.7638 107.128 49.7305 85.1758C51.835 80.9632 79.3247 25.9377 65.4976 53.615C55.2982 74.031 26.6117 120.327 23.9609 139.82C20.6587 164.103 51.8315 87.0932 65.127 60.4799C85.0922 20.5159 63.5052 67.8007 58.2115 80.4454C55.274 87.4623 35.2486 143.262 38.0642 138.803C46.011 126.217 64.9834 85.2592 58.2897 98.658C52.7291 109.788 23.5109 160.197 25.5249 167.644C25.706 168.314 39.3337 156.6 41.9204 156.937C63.442 159.74 81.7584 172.148 99.146 182.878C113.432 191.693 125.885 203.596 139.909 212.858C144.281 215.745 181.453 222.667 179.644 231.289C177.459 241.7 166.527 233.241 161.192 231.486C122.416 218.731 87.2066 197.193 56.8862 169.16C51.5614 164.237 43.7031 156.965 39.3933 149.409C35.2482 142.142 53.4324 154.456 59.9221 157.981C92.1932 175.511 118.296 202.159 153.401 214.425" stroke="white" stroke-width="11.9998" stroke-linecap="round"/>
</svg>
