<svg width="259" height="210" viewBox="0 0 259 210" fill="none" xmlns="http://www.w3.org/2000/svg">
<path d="M111.761 47.7457C99.7473 77.1077 78.4796 105.884 62.1741 134.652C57.9308 142.139 48.0063 177.011 48.0063 150.22C48.0063 136.947 43.9273 1.05517 86.6457 12.1619C132.7 24.1358 157.93 60.5998 176.16 83.6716C200.993 115.1 207.795 148.282 227.357 180.33C238.23 198.141 222.215 156.531 221.561 154.839C208.981 122.254 186.924 92.185 165.212 61.0896C147.498 35.719 139.151 23.1107 88.8996 23.1107C60.9357 23.1107 77.127 92.0747 76.9858 103.174C76.707 125.097 76.59 148.018 62.1741 168.868C53.0759 182.026 48.3688 146.355 48.3283 145.601C46.7844 116.892 40.3488 82.8751 57.6661 55.273C60.6682 50.488 76.2132 28.6331 92.4416 29.7827C134.068 32.7315 160.198 73.5293 172.296 89.3171C190.787 113.447 204.929 138.392 220.595 163.051C223.599 167.778 237.304 200.804 249.575 203.767C257.841 205.763 248.744 194.051 246.355 189.397C239.155 175.37 228.161 161.941 218.664 148.338C195.608 115.318 182.54 81.0096 161.67 47.7457C154.263 35.9389 105.63 41.1178 86.6457 41.5869C66.5886 42.0826 82.7817 137.162 82.7817 153.813C82.7817 156.366 85.6601 178.165 87.2896 175.026C99.2533 151.985 87.755 121.588 88.8996 97.871C89.8806 77.5441 93.438 56.4059 102.745 36.6257C111.111 18.8466 163.569 70.6213 167.144 74.0914C194.719 100.857 219.288 130.109 232.187 159.972C234.642 165.655 240.684 182.804 237.339 177.25C220.265 148.901 205.744 120.239 187.43 92.0544C180.977 82.1235 146.201 6.73503 111.761 6.00312C92.0466 5.58414 71.3175 27.9562 65.394 35.5993C50.9235 54.2706 53.8022 74.8004 53.8022 94.6205C53.8022 97.5693 50.4442 139.833 40.9224 127.467C30.6759 114.16 -10.8106 12.8599 40.9224 10.9643C56.7111 10.3858 91.3272 7.41918 104.999 12.504C117.651 17.2092 124.834 33.8128 131.725 40.5605C155.651 63.9907 198.7 95.2733 198.7 123.019C198.7 149.32 72.2949 138.015 49.9383 131.915C42.3146 129.835 -15.295 115.711 16.4508 115.492C60.4432 115.188 104.866 116.693 148.791 115.321C171.157 114.622 -0.385366 109.333 77.6298 109.333C95.0175 109.333 147.181 109.333 129.793 109.333C120.743 109.333 61.1147 115.094 89.2216 115.492C116.26 115.875 197.412 115.492 170.364 115.492C121.888 115.492 73.4976 117.906 25.4667 121.308C-1.0264 123.185 78.9594 121.011 105.643 121.822C125.695 122.43 105.134 128.384 125.285 127.125C134.773 126.532 181.648 121.448 174.228 122.335C154.137 124.737 134.999 129.748 115.947 133.797C103.027 136.543 148.428 137.187 157.485 131.573C163.083 128.102 140.296 132.036 131.725 132.428C101.654 133.806 71.179 133.415 41.2444 135.508C38.7397 135.683 35.2399 135.246 33.8385 136.363C29.1885 140.069 50.6219 136.167 58.9541 135.679C88.6851 133.935 118.276 131.548 147.503 128.151C178.992 124.492 176.845 122.308 175.516 105.227C174.054 86.4243 163.246 53.8305 123.997 45.6928C114.604 43.7453 126.32 56.4686 130.115 61.4318C146.054 82.2775 159.147 103.672 174.872 124.559C181.463 133.313 193.661 157.456 201.598 149.023C204.605 145.827 204.496 134.843 204.496 138.416C204.496 155.555 207.552 174.168 221.883 189.397" stroke="white" stroke-width="11.9998" stroke-linecap="round"/>
</svg>
