<svg width="194" height="175" viewBox="0 0 194 175" fill="none" xmlns="http://www.w3.org/2000/svg">
<path d="M49.2635 14.5691C54.2473 55.908 53.7683 180.485 57.1279 139.034C58.6266 120.542 57.8321 101.689 57.5998 83.1942C57.4289 69.5891 60.0375 48.9624 54.9259 35.1827C52.8738 29.6508 52.3812 46.6173 52.252 52.4042C51.7143 76.4871 52.0947 100.596 52.0947 124.682C52.0947 130.336 55.1428 146.7 52.0947 141.643C49.7099 137.687 49.154 122.977 48.6343 120.247C47.1119 112.249 30.4099 23.7017 23.7825 23.7017C21.574 23.7017 28.5778 99.7402 29.445 105.112C30.5151 111.742 26.9696 126.305 34.7928 124.682C38.5623 123.901 35.255 118.248 35.422 115.028C36.1584 100.826 37.0133 89.4266 37.9386 74.8444C39.1799 55.282 40.4324 35.7251 40.7698 16.1347C40.7796 15.5663 39.5461 3.39093 41.399 12.6121C49.5275 53.0659 54.1985 93.6635 60.2737 134.337C64.5205 162.769 63.6173 144.935 61.0602 128.466C57.3733 104.72 51.9064 81.2193 45.4885 57.8838C42.5451 47.1816 40.1667 40.0494 36.9949 29.9641C36.3401 27.8821 36.1292 21.724 35.1074 23.7017C33.0494 27.6848 35.1074 46.1261 35.1074 47.9684C35.1074 68.9299 35.1074 89.8914 35.1074 110.853C35.1074 117.464 36.4347 137.153 34.7928 130.684C29.5775 110.136 25.87 89.196 20.9513 68.582C16.4138 49.5653 11.7861 30.577 8.05356 11.4379C7.71492 9.70148 7.47318 7.95227 7.10982 6.21928C6.87625 5.1053 6.99662 8.48459 7.10982 9.61139C11.2324 50.6456 21.4002 91.1652 32.5907 131.206C34.8589 139.321 38.8505 164.237 37.3094 140.077C34.6154 97.8431 29.8736 55.5747 29.445 13.2644C29.136 -17.2343 40.432 73.5959 47.376 103.547C52.1282 124.044 63.4195 185.608 63.4195 164.735C63.4195 145.213 59.7206 126.311 55.2405 107.2C49.5629 82.9806 58.3059 79.149 87.3276 76.9318C106.735 75.4492 126.131 73.9741 145.525 72.3655C146.686 72.2692 161.086 72.1742 164.085 70.9304C168.589 69.0624 154.003 70.9749 148.985 71.3218C125.609 72.9376 102.719 77.3016 80.0922 82.2809C43.1396 90.4128 79.2287 81.1531 91.889 76.6709C102.825 72.7991 138.902 61.7179 104.944 65.4508C79.031 68.2994 1.73251 77.4537 27.8721 77.4537C50.498 77.4537 75.8464 62.7982 98.3378 66.7555C111.692 69.1051 73.5198 76.1983 61.2175 81.1067C54.4529 83.8057 76.2985 81.1815 83.7099 80.1935C85.6977 79.9285 107.499 76.7541 112.651 76.5404C114.395 76.4681 110.327 78.8473 108.719 79.4107C104.767 80.7946 72.9356 91.0511 82.2943 89.3261C89.9541 87.9142 150.433 75.119 152.76 78.4974C153.798 80.0034 56.5703 97.6032 105.888 89.7175C107.038 89.5335 125.503 87.3691 119.415 87.3691C104.646 87.3691 132.255 58.8151 135.301 54.7526C138.421 50.5913 159.252 20.1277 159.995 21.8752C177.579 63.1987 180.014 111.486 186.735 154.69C187.033 156.605 187.199 158.54 187.678 160.43C188.436 163.414 187.551 154.318 187.049 151.297C183.774 131.6 177.338 112.465 169.747 93.6315C163.091 77.1175 155.121 61.0591 146.783 45.0981C145.627 42.8847 142.694 36.293 142.694 38.7053C142.694 61.119 145.271 83.372 148.199 105.634C150.883 126.042 149.681 98.204 148.985 93.8924C145.096 69.8088 129.303 -1.81023 131.841 22.3971C134.485 47.6246 144.598 72.0416 147.727 97.2845C150.332 118.305 146.063 75.6196 145.839 74.3225C142.968 57.6516 138.776 40.989 133.413 24.7454C132.713 22.6228 129.481 16.8041 129.481 19.0049C129.481 25.4595 132.63 46.1383 133.099 49.534C137.649 82.507 137.041 121.573 150.873 153.124C158.722 171.028 151.367 114.975 149.614 95.9799C149.288 92.4433 145.987 51.2759 149.614 74.8444C151.083 84.3904 152.699 140.058 164.085 143.73C165.152 144.075 164.92 141.936 165.029 140.991C165.781 134.438 165.033 122.956 164.557 117.507C162.665 95.8567 158.559 74.4988 153.704 53.187C152.389 47.4142 148.955 30.2324 148.513 36.096C147.146 54.2421 150.369 72.9629 154.176 90.7612C154.475 92.161 165.029 139.247 165.029 116.854C165.029 90.325 151.362 11.3543 154.018 37.792C157.009 67.5582 164.844 98.111 174.781 126.77C184.42 154.574 174.558 103.975 173.68 99.2415C171.675 88.4313 169.106 77.7482 166.602 67.0164C166.267 65.5843 165.947 64.1498 165.658 62.711C165.278 60.8189 165.144 58.6138 165.658 63.6243C168.556 91.8711 168.131 127.948 183.274 153.907C194.363 172.916 180.629 111.56 175.41 90.8917C173.881 84.8389 172.322 78.7912 170.691 72.7569C169.383 67.9186 170.04 54.7721 165.972 58.4057C158.605 64.9863 165.343 102.603 165.343 110.853C165.343 117.114 167.889 159.353 164.085 129.379C161.264 107.154 152.546 40.5346 154.176 62.8415C155.751 84.401 159.599 105.501 164.871 126.639C166.048 131.358 165.343 123.943 165.343 122.595" stroke="white" stroke-width="11.9998" stroke-linecap="round"/>
</svg>
