<svg width="167" height="194" viewBox="0 0 167 194" fill="none" xmlns="http://www.w3.org/2000/svg">
<path d="M66.2099 13.0426C65.0662 31.1368 50.7262 51.775 42.8832 67.2642C31.8716 89.0112 -5.19552 152.093 10.6419 132.831C28.0884 111.613 40.752 86.3685 52.6984 62.4631C57.3092 53.2365 70.2426 25.5292 63.529 33.6768C53.6704 45.6409 49.0881 63.8418 41.9422 77.2019C40.7704 79.3927 25.173 100.547 27.2492 104.724C28.3695 106.978 30.7435 101.197 32.1643 99.2331C37.9242 91.2712 43.4443 82.5086 48.2063 74.1294C59.3933 54.4448 70.6289 33.7289 78.007 12.525C89.7852 -21.324 45.9477 78.7334 44.52 114.628C43.6712 135.968 67.9506 77.9074 75.2652 57.882C79.5994 46.0159 75.3959 49.028 70.482 58.3145C58.6653 80.6464 48.0984 103.633 37.6364 126.511C36.8512 128.228 23.6694 158.304 36.1351 137.392C47.65 118.074 55.7804 97.5247 64.5378 77.1153C67.8575 69.3786 83.6271 50.9218 74.6372 53.9565C65.8868 56.9104 58.6572 82.1192 56.2223 87.8915C54.0139 93.1266 48.4574 107.146 46.8337 113.664C46.2538 115.991 50.0385 109.82 51.0329 107.62C61.0253 85.5141 70.7625 63.1149 79.6116 40.5988C86.2089 23.8122 81.053 31.7819 76.7766 42.8806C68.2654 64.9701 60.2468 87.2096 51.1887 109.116C50.1133 111.717 43.821 126.624 50.141 113.811C59.5186 94.7997 67.1248 75.0847 74.7929 55.4529C78.6342 45.6187 95.0994 19.8723 85.0684 25.5496C72.8252 32.4789 65.35 58.5134 59.9747 69.1173C55.1609 78.6131 42.464 95.5566 43.303 107.151C43.9702 116.372 54.6926 92.1932 59.5786 84.2924C67.96 70.7393 75.1394 56.6991 83.1524 42.9906C90.3965 30.5977 80.8039 50.3463 80.3022 51.4531C69.1522 76.0515 58.511 100.872 48.3181 125.819C46.7711 129.606 40.3624 142.087 49.4572 132.548C63.9751 117.322 72.788 99.163 80.7085 80.6651C80.745 80.5797 95.1042 43.3276 93.7123 43.2372C88.4257 42.8939 73.7364 70.8356 72.9989 71.956C59.1201 93.0403 44.0362 113.658 31.0795 135.206C18.9405 155.393 33.0826 139.312 36.3551 128.961C39.3035 119.636 29.0834 133.723 37.9428 131.564C56.658 127.002 78.6088 110.185 93.9696 100.544C110.497 90.1713 123.729 76.7989 137.338 63.872C151.685 50.2443 128.555 78.958 127.054 81.0399C113.119 100.364 96.4827 117.478 78.823 134.252C75.3253 137.575 49.8867 157.974 52.6511 146.369C60.3841 113.904 92.1779 82.4201 122.833 63.6732C141.436 52.2966 113.967 84.24 112.816 85.52C96.0614 104.153 47.1138 159.101 56.0226 136.589C64.7709 114.482 91.2772 96.5244 108.925 79.7613C135.052 54.9443 97.2225 90.8771 91.749 96.0762C77.6354 109.482 63.5218 122.888 49.4081 136.294C44.1488 141.29 59.9268 126.303 65.1861 121.307C85.2926 102.209 106.719 84.4088 127.45 65.8647C131.56 62.1883 146.194 53.9943 143.13 58.3705C136.44 67.9229 123.579 77.1317 114.969 85.1194C97.87 100.984 80.4742 116.17 59.0726 127.937C51.8034 131.933 44.4004 135.329 37.7227 139.994C31.3189 144.469 48.7389 129.47 54.2996 124.249C78.3343 101.68 103.037 74.4077 137.182 62.3756C144.605 59.7599 140.848 66.2079 138.838 69.8471C131.065 83.9135 120.631 97.0815 110.525 109.895C109.2 111.575 97.969 123.466 107.485 114.427C117.271 105.131 127.057 95.8356 136.844 86.5398C156.843 67.543 127.766 95.3598 122.464 100.199C117.536 104.696 135.087 84.5085 138.491 81.2758C142.884 77.1022 154.18 63.5128 151.672 68.7551C134.64 104.354 120.401 143.1 106.845 179.986C104.017 187.68 104.73 192.441 110.186 182.567C118.644 167.259 126.044 151.205 132.46 135.101C136.393 125.229 138.681 114.895 142.497 105.013C143.079 103.505 146.213 99.5875 145.137 100.861C137.295 110.143 130.274 119.964 123.347 129.78C105.593 154.94 122.571 131.101 108.509 151.685C105.395 156.242 106.766 153.501 108.275 149.44C116.496 127.322 125.032 105.321 134.34 83.5736C140.743 68.6156 140.727 65.8169 132.67 82.2828C128.552 90.6981 109.589 118.826 114.025 128.769C115.649 132.411 119.424 123.024 121.658 119.874C132.853 104.088 126.749 111.8 138.455 95.6974C143.625 88.5858 152.024 81.1923 155.646 73.2018C159.456 64.7975 143.781 87.9328 138.216 95.513C133.313 102.193 122.748 113.475 123.684 122.471C124.529 130.59 134.279 109.615 138.518 102.626C146.118 90.0947 153.135 77.4062 159.096 64.1702C162.612 56.3618 158.606 62.3009 155.345 66.0885C143.55 79.7896 133.658 94.265 125.906 110.083C123.356 115.289 114.394 130.062 118.774 125.902C125.896 119.138 130.894 109.37 136.448 101.715C141.67 94.5178 147.038 87.4025 152.202 80.1732C154.334 77.1882 162.271 71.584 158.043 70.9253C145.183 68.9218 131.518 163.327 133.757 174.977C138.274 198.487 150.371 131.041 156.237 108.405C158.417 99.9935 154.017 107.483 151.01 110.903C137.668 126.075 125.959 142.134 114.709 158.539C108.325 167.848 107.743 169.018 101.75 177.425C100.385 179.342 99.1177 185.067 97.5123 183.095C95.7226 180.897 106.235 152.376 106.638 150.584C111.42 129.314 114.675 107.775 118.832 86.3836C119.946 80.6481 124.526 63.8528 121.863 69.1163C116.564 79.5899 116.004 95.1615 113.881 106.296C111.048 121.15 106.007 138.084 107.388 153.571C107.846 158.705 115.029 146.03 117.779 141.646C127.513 126.127 136.873 110.533 144.198 93.9422C146.203 89.4006 148.684 79.4315 144.447 90.0062C137.518 107.299 131.25 124.947 125.109 142.494C123.392 147.403 120.29 162.076 123.875 158.054C133.97 146.73 135.668 131.509 138.321 117.612C142.553 95.449 132.308 113.046 122.968 121.918" stroke="white" stroke-width="11.9998" stroke-linecap="round"/>
</svg>
