<svg width="213" height="296" viewBox="0 0 213 296" fill="none" xmlns="http://www.w3.org/2000/svg">
<path d="M60.0696 6.88383C51.4701 38.8874 42.8706 70.891 34.2711 102.895C33.8019 104.641 12.8647 182.972 16.7438 182.915C36.968 182.616 55.2021 78.2468 59.7211 61.4291C65.8504 38.6183 70.6727 20.6718 60.4156 58.8442C48.6409 102.665 36.8662 146.485 25.0915 190.305C12.0598 238.803 27.1671 182.581 28.7629 176.642C40.3842 133.392 64.5477 1.18083 57.6599 45.4339C50.4515 91.7471 44.6927 138.184 40.0761 184.829C39.2032 193.649 29.6866 233.385 35.7436 243.847C47.9779 264.979 51.7074 197.749 58.0317 174.212C69.5418 131.377 81.0519 88.5413 92.562 45.7057C106.95 -7.83877 63.7868 152.795 49.3992 206.339C28.0265 285.879 48.8968 168.774 50.6407 148.47C53.7457 112.32 55.7365 76.4452 54.3032 40.1766C53.6257 23.031 52.7202 34.2352 49.7502 45.2882C36.9164 93.0499 -9.70183 233.048 12.7336 188.964C31.8351 151.432 14.8228 165.678 28.5644 177.381C35.0441 182.899 143.407 105.044 159.846 97.0437C168.507 92.8287 211.464 53.0218 193.679 77.6276C178.892 98.0869 160.25 116.283 140.829 132.319C131.167 140.297 109.428 169.306 112.676 157.221C120.317 128.783 166.403 81.2199 187.269 60.0678C208.319 38.7298 174.999 87.6151 171.296 91.4098C140.446 123.022 82.5425 136.038 59.0708 173.304C52.4259 183.854 124.167 87.8306 107.889 148.412C94.4691 198.353 163.955 198.044 162.258 237.457C160.649 274.831 29.3532 132.164 87.6919 176.243C126.582 205.628 150.476 251.261 188.788 282.199C214.515 302.975 200.561 276.711 191.128 264.615C167.596 234.439 138.896 208.674 112.653 180.971C87.184 154.085 121.472 229.724 125.503 236.687C144.411 269.346 158.973 265.01 139.746 231.012C127.293 208.992 108.681 200.31 90.9961 184.654C64.8265 161.486 112.843 199.237 118.958 204.837C141.402 225.391 179.649 252.82 206.656 260.077" stroke="white" stroke-width="11.9998" stroke-linecap="round"/>
</svg>
