<svg width="278" height="335" viewBox="0 0 278 335" fill="none" xmlns="http://www.w3.org/2000/svg">
<path d="M159.954 65.8021C125.76 109.069 96.0292 152.188 75.5929 201.423C68.473 218.576 54.0055 250.444 57.0276 208.306C61.2032 150.084 111.867 -16.5171 96.855 39.3499C83.9295 87.4528 53.1343 233.508 57.559 183.519C61.4901 139.107 71.4771 96.47 82.939 53.8138C84.8282 46.7829 101.522 -3.76447 117.511 8.09789C149.337 31.7105 165.509 85.5282 182.181 113.721C209.364 159.69 243.777 205.443 255.447 253.708C262.493 282.848 287.733 378.303 255.626 294.516C226.337 218.082 196.783 128.828 144.712 56.1666C127.981 32.8186 138.988 12.2273 113.754 49.0352C82.571 94.5211 58.9286 149.345 54.9013 203.778C53.3517 224.721 60.1884 212.182 61.6847 199.269C67.1321 152.258 58.4603 103.713 58.9309 56.0687C59.6739 -19.1456 102.906 44.5001 147.767 86.2709C205.288 139.829 239.432 193.318 262.524 256.401C266.135 266.266 262.091 306.534 251.972 274.935C238.592 233.15 233.022 186.406 162.767 188.045C129.821 188.814 108.192 187.231 75.6285 178.481C32.5559 166.907 163.22 194.894 206.292 206.468C269.865 223.55 79.1458 172.303 15.5726 155.221C-23.2233 144.796 57.8157 166.756 67.5398 169.184C99.4813 177.162 131.662 176.826 163.512 181.122C189.044 184.566 133.014 173.29 122.831 166.63C90.159 145.259 55.8628 119.803 48.3473 89.2356C42.7342 66.4059 43.3941 51.6811 49.0928 30.4732C58.7941 -5.63107 44.7718 105.907 43.7181 143.789C42.781 177.476 48.2657 212.667 56.6628 246.989C60.5269 262.783 59.589 251.374 60.3283 241.643C63.7973 195.976 56.7742 148.854 61.2598 103.39C63.6643 79.0182 71.0574 52.9225 79.3368 29.894C94.1791 -11.3882 162.36 109.755 166.587 117.841C188.771 160.289 217.418 202.378 237.731 244.99C239.613 248.939 237.146 263.757 238.318 259.394C242.02 245.615 245.723 231.837 249.425 218.058" stroke="white" stroke-width="11.9998" stroke-linecap="round"/>
</svg>
