<svg width="617" height="572" viewBox="0 0 617 572" fill="none" xmlns="http://www.w3.org/2000/svg">
<path d="M228.248 511.662C229.498 521.504 243.14 522.912 249.805 522.386C245.092 524.65 243.087 538.893 242.673 545.731C247.817 553.839 263.488 570.044 285.024 570.001C311.942 569.947 278.586 555.914 284.936 526.418C301.589 521.258 294.383 507.428 301.257 483.315C308.13 459.202 308.195 491.248 333.027 473.508C357.859 455.769 349.696 476.039 370.706 469.843C391.716 463.648 371.008 492.403 397.16 493.889C416.62 481.801 412.582 513.086 449.987 500.961C487.393 488.837 438.698 496.626 428.668 480.751C418.637 464.876 431.977 468.951 449.139 461.482C466.3 454.013 468.088 450.419 476.743 420.15C483.668 395.935 513.161 426.743 527.042 445.173C536.617 446.949 556.119 447.217 557.528 434.088C559.29 417.676 553.141 419.74 561.828 404.853C570.514 389.966 568.714 387.15 552.024 374.365C535.334 361.58 548.14 355.145 550.693 350.013C553.246 344.88 559.147 347.176 574.494 329.199C589.84 311.222 586.768 313.535 571.12 308.952C555.472 304.369 558.031 301.8 563.903 289.995C569.776 278.19 577.204 274.843 580.779 267.657C584.354 260.471 584.831 242.781 589.437 238.67C594.043 234.558 611.713 224.781 614.739 199.394C617.764 174.007 613.689 187.346 601.884 181.474C590.079 175.601 581.676 204.075 557.063 203.356C542.999 221.33 529.152 219.563 523.753 212.396C518.355 205.228 528.85 197.003 527.784 177.265C526.719 157.527 510.357 180.12 492.393 171.183C474.429 162.247 483.683 174.533 468.611 200.97C453.538 227.406 443.534 224.35 443.244 208.2C442.955 192.049 451.16 192.288 449.793 149.99C438.486 136.682 434.924 150.276 424.169 156.451C413.414 162.627 414.206 173.904 387.3 180.368C360.394 186.832 382.667 171.661 396.966 142.918C411.265 114.176 401.562 133.679 372.82 119.381C344.078 105.082 343.159 158.409 329.815 151.77C316.471 145.132 354.394 135.826 356.625 97.8785C375.046 78.87 350.956 83.5331 338.11 69.4582C325.263 55.3833 337.369 83.8169 319.442 92.8255C301.514 101.834 293.536 86.9816 293.763 72.3681C293.99 57.7545 312.202 62.3324 327.806 45.1237C343.41 27.9151 313.187 42.3336 299.577 31.0803C285.967 19.827 303.918 22.3549 298.762 8.26489C293.606 -5.82515 280.55 3.6869 278.02 20.3561C275.49 37.0253 250.343 25.7957 222.627 12.0074C200.828 8.2058 218.031 21.246 214.738 40.7369C211.452 60.1808 199.704 58.2101 172.658 53.6734L172.462 53.6405C157.088 57.5171 183.519 70.026 186.906 96.6817C190.293 123.337 168.965 99.282 166.644 92.3647C164.322 85.4474 149.956 80.8616 146.382 88.0472C142.807 95.2328 157.196 111.355 165.942 125.951C174.688 140.546 157.766 139.811 142.897 140.098C128.028 140.384 136.715 125.497 121.815 110.401C106.915 95.3053 118.24 117.587 124.933 131.161C131.626 144.735 113.165 143.233 108.793 136.577C104.421 129.92 98.7808 129.675 89.0419 131.233C79.3031 132.791 103.95 150.174 107.826 165.548C111.703 180.923 102.464 176.327 88.0928 169.177C73.7216 162.028 82.9938 183.288 94.8039 191.724C106.614 200.161 107.635 198.108 125.881 219.35C144.126 240.592 118.986 233.208 112.348 246.553C107.037 257.228 94.0888 260.946 88.2788 261.47C85.4658 264.98 76.8138 271.646 64.7103 270.235C52.6067 268.823 40.5056 260.114 35.9679 255.936C40.84 256.439 56.6833 256.253 81.0803 251.487C111.576 245.529 91.2704 219.42 86.6692 226.095C82.068 232.769 66.1958 244.082 51.2883 225.14C36.3807 206.199 54.8629 217.955 61.5016 204.61C75.2716 167.922 57.1248 195.39 46.104 196.95C35.0832 198.51 39.4653 210.295 39.5066 230.804C39.5479 251.314 42.0859 238.49 17.5063 254.435C-7.07326 270.379 1.67554 286.256 17.0369 275.971C32.3983 265.685 29.3473 278.253 63.9728 285.874C98.5983 293.496 74.7512 291.237 95.7507 279.914C116.75 268.592 112.402 273.471 134.931 257.787C157.46 242.104 151.071 252.371 168.481 240.543C185.89 228.715 178.233 245.394 190.037 251.267C201.842 257.14 193.388 259.977 184.735 291.528C176.082 323.079 180.152 307.176 219.123 308.635C235.81 320.138 227.111 328.616 238.149 336.029C249.188 343.441 241.766 349.353 245.152 376.008C248.539 402.664 254.914 385.987 224.428 397.072C193.942 408.158 210.359 412.483 211.406 423.248C212.453 434.014 227.046 423.986 240.127 427.292C253.208 430.598 244.252 438.308 240.445 457.543C236.638 476.779 229.939 460.641 216.381 475.025C202.822 489.408 218.45 483.737 240.504 487.025C262.559 490.314 226.685 499.359 228.248 511.662Z" stroke="white" stroke-width="2.34738" stroke-dasharray="4.69 4.69"/>
</svg>
