<svg width="898" height="923" viewBox="0 0 898 923" fill="none" xmlns="http://www.w3.org/2000/svg">
<path d="M200.273 97.934C185.725 90.7768 171.502 108.112 166.21 117.674C167.372 109.208 149.759 93.6494 140.807 86.9283C125.113 86.6419 88.8831 93.4206 69.5225 122.827C45.3217 159.584 94.5374 126.733 129.031 161.951C121.05 189.307 146.407 191.934 173.089 223.019C199.77 254.105 156.014 225.338 157.811 275.174C159.608 325.011 139.329 295.627 128.831 329.857C118.333 364.087 97.7957 309.954 72.1856 344.28C71.1207 381.701 32.1032 348.025 14.9045 409.951C-2.2942 471.877 30.9967 398.46 61.6889 399.077C92.3811 399.693 74.7952 414.214 69.5039 444.343C64.2128 474.472 67.5005 480.145 100.97 519.204C127.745 550.451 59.1398 562.93 21.4901 565.264C10.435 576.722 -7.51713 603.075 9.11489 616.819C29.905 633.999 32.6357 623.755 45.1023 649.006C57.5687 674.256 63.0324 674.337 95.5164 663.09C128 651.842 125.228 675.1 129.924 683.203C134.62 691.306 126.168 697.286 136.843 734.401C147.517 771.515 147.133 765.243 167.493 748.031C187.853 730.819 189.049 736.622 199.85 755.26C210.651 773.898 208.518 787.042 215.093 798.387C221.667 809.732 245.36 826.312 246.812 836.295C248.264 846.279 245.663 879.179 277.552 906.164C309.441 933.149 294.927 915.581 313.58 904.771C332.233 893.961 300.983 856.862 324.16 823.946C312.333 788.581 327.229 771.289 341.871 770.382C356.513 769.474 358.265 791.192 386.14 807.512C414.016 823.832 397.963 781.176 426.348 764.726C454.734 748.276 429.634 749.832 407.178 705.473C384.721 661.115 397.911 650.223 420.194 664.372C442.477 678.52 434.752 689.493 493.663 725.716C522.006 722.279 506.682 705.182 507.96 684.955C509.237 664.729 493.146 655.653 508.595 613.142C524.044 570.63 524.646 614.665 550.944 660.045C577.243 705.425 559.398 674.632 604.814 648.312C650.231 621.993 578.343 572.721 599.429 560.502C620.515 548.282 599.006 608.377 648.739 645.589C658.047 687.825 673.412 650.775 704.189 645.93C734.967 641.085 685.278 631.991 689.16 599.432C693.043 566.873 720.49 569.367 740.212 582.836C759.934 596.304 737.269 617.016 746.664 653.791C756.058 690.565 763.651 636.368 791.27 627.941C818.888 619.514 799.253 641.717 823.116 647.373C846.978 653.03 845.781 626.661 825.332 608.201C804.884 589.741 842.873 565.56 886.669 540.18C911.51 513.876 878.215 525.594 854.608 503.552C831.057 481.563 844.339 467.317 874.914 434.521L875.135 434.283C883.713 409.826 842.821 434.607 803.419 415.223C764.018 395.839 816.053 388.416 827.578 391.479C839.104 394.542 858.312 379.081 851.737 367.736C845.163 356.391 810.202 361.496 782.413 360.28C754.624 359.064 770.886 336.65 783.904 316.116C796.922 295.581 809.388 320.832 843.409 314.106C877.43 307.38 836.835 302.761 812.289 299.666C787.744 296.57 806.44 272.746 819.459 272.779C832.479 272.811 837.899 265.34 844.557 250.656C851.215 235.973 805.286 253.93 780.825 245.373C756.365 236.815 770.963 228.355 793.672 215.195C816.38 202.035 779.029 195.536 756.875 204.044C734.721 212.553 736.599 215.794 691.181 221.548C645.763 227.302 678.501 199.668 666.291 178.599C656.523 161.743 663.13 140.739 667.654 132.344C665.405 125.348 664.117 107.547 676.956 92.3123C689.796 77.0777 712.584 68.4178 722.374 65.9922C717.294 72.1833 703.26 93.9558 687.759 131.517C668.383 178.469 722.296 174.288 717.344 162.003C712.391 149.718 711.279 117.887 750.551 114.614C789.823 111.341 757.125 125.959 769.335 147.028C806.946 198.842 785.855 149.362 793.666 132.928C801.476 116.494 781.456 111.859 753.452 93.4472C725.448 75.0358 740.645 90.044 741.069 42.168C741.492 -5.70805 711.952 -8.07374 712.125 22.1359C712.298 52.3455 697.912 36.8681 656.295 77.2239C614.678 117.58 639.264 87.0938 635.766 125.926C632.268 164.757 629.536 154.434 630.606 199.279C631.677 244.123 623.437 226.167 623.866 260.558C624.296 294.95 608.457 269.488 589.804 280.298C571.15 291.108 574.906 277.024 539.686 236.814C504.466 196.604 522.482 216.474 485.348 268.304C454.614 280.703 450.899 261.205 430.837 269.584C410.774 277.963 409.407 262.518 370.006 243.134C330.604 223.75 347.596 247.461 359.971 195.906C372.347 144.352 351.645 162.844 336.021 154.578C320.397 146.312 320.911 175.242 304.606 190.104C288.302 204.965 285.866 185.809 263.069 163.297C240.273 140.785 268.319 146.182 260.932 114.741C253.545 83.2997 247.187 109.717 222.814 136.831C198.442 163.945 218.458 106.88 200.273 97.934Z" stroke="white" stroke-width="3.3613" stroke-dasharray="6.72 6.72"/>
</svg>
