<svg width="577" height="636" viewBox="0 0 577 636" fill="none" xmlns="http://www.w3.org/2000/svg">
<path d="M501.376 473.918C511.458 475.342 516.523 462.223 517.796 455.485C518.77 460.762 532.332 466.598 538.992 468.856C548.404 465.958 568.667 454.833 574.419 433.51C581.609 406.857 558.738 436.071 531.242 421.81C530.615 403.935 514.982 407.325 492.957 394.002C470.932 380.679 502.678 389.281 491.796 359.91C480.914 330.538 498.788 344.099 498.307 321.632C497.827 299.164 520.726 327.434 529.235 301.956C522.503 279.429 552.392 291.886 550.454 251.591C548.515 211.296 543.123 261.59 524.705 267.223C506.288 272.855 513.912 260.757 511.135 241.754C508.358 222.751 505.281 220.01 477.64 203.258C455.527 189.857 493.968 169.002 515.952 160.25C520.287 151.255 525.801 132.028 513.18 127.083C497.405 120.901 497.793 127.544 485.391 114.922C472.988 102.3 469.715 103.32 452.565 116.378C435.415 129.437 432.489 115.024 428.095 111.109C423.7 107.195 427.561 101.976 413.891 81.9274C400.221 61.8791 401.686 65.5447 392.937 79.7903C384.188 94.0359 382.333 90.8092 372.225 81.805C362.117 72.8008 360.801 64.5446 354.648 59.0638C348.496 53.583 331.108 48.3266 328.277 42.6562C325.446 36.9859 320.52 16.8555 296.198 6.99591C271.875 -2.86365 283.986 4.77632 274.995 14.8701C266.003 24.964 291.935 40.9804 284.599 65.1429C298.612 83.9221 293.136 97.1475 284.586 100.551C276.037 103.955 270.717 91.3446 250.887 87.061C231.057 82.7774 249.024 105.079 235.341 120.44C221.658 135.8 236.314 129.965 258.434 152.03C280.553 174.095 274.835 183.169 258.766 179.088C242.697 175.006 245.142 166.951 202.893 156.865C186.673 164.456 199.174 171.657 202.394 183.97C205.615 196.283 216.994 198.549 216.153 226.924C215.313 255.298 206.285 229.153 181.674 207.23C157.064 185.307 173.763 200.183 151.871 224.759C129.979 249.335 182.532 264.666 172.368 276.076C162.204 287.486 163.195 247.441 126.223 234.97C112.359 211.6 110.494 236.701 93.1004 245.607C75.7073 254.514 107.118 250.223 111.213 270.401C115.309 290.578 98.4558 294.456 84.0475 290.279C69.6393 286.102 79.0728 269.319 66.2331 249.223C53.3935 229.127 59.5364 262.935 44.7316 273.36C29.9267 283.785 37.2604 266.705 21.9219 267.996C6.58338 269.288 12.4882 284.78 28.3121 291.792C44.136 298.804 26.2498 320.653 5.13904 344.351C-4.49145 364.896 13.0496 351.398 31.4619 359.928C49.8298 368.438 44.7169 379.532 32.9469 405.069L32.8616 405.254C32.5625 421.517 52.0609 398.743 79.365 402.601C106.669 406.458 77.1116 421.058 69.6378 421.485C62.164 421.911 53.7575 434.887 59.9102 440.368C66.0629 445.849 85.8985 435.97 102.704 431.262C119.509 426.554 114.227 443.101 110.509 457.893C106.792 472.685 94.3891 460.062 75.4325 470.725C56.4759 481.387 81.5852 476.206 96.8266 473.253C112.068 470.301 105.613 488.164 97.8455 490.69C90.0778 493.216 88.3173 498.732 87.239 508.791C86.1607 518.85 110.005 499.161 126.271 499.483C142.537 499.804 135.5 507.704 124.554 519.992C113.608 532.28 137.153 528.854 148.685 519.448C160.216 510.043 158.458 508.477 184.4 496.166C210.342 483.855 196.266 506.737 207.693 516.915C216.834 525.058 217.031 538.877 215.986 544.768C218.704 548.501 222.976 558.866 218.322 570.462C213.667 582.058 201.787 591.678 196.429 595.038C198.238 590.353 202.318 574.624 204.164 549.192C206.472 517.401 175.156 530.435 180.526 536.794C185.897 543.152 192.827 561.919 170.06 571.549C147.294 581.178 163.908 566.068 152.481 555.889C119.86 532.34 142.174 557.727 140.753 569.055C139.332 580.383 152.179 579.234 172.498 584.739C192.816 590.245 180.802 584.266 189.975 612.902C199.147 641.538 217.222 637.174 211.172 619.19C205.122 601.207 216.745 607.625 233.609 575.421C250.473 543.217 241.818 566.205 236.259 542.362C230.699 518.519 234.36 524.141 224.894 497.605C215.428 471.069 223.875 480.168 216.848 459.741C209.822 439.313 224.276 451.402 233.268 441.308C242.259 431.214 242.793 440.348 271.704 457.444C300.615 474.54 285.964 466.212 297.897 428.04C313.778 414.638 319.831 425.539 330.141 416.62C340.451 407.701 344.306 416.645 371.61 420.503C398.914 424.36 384.117 413.541 386.889 446.708C389.661 479.874 398.362 464.798 409.303 466.674C420.244 468.549 414.242 451.396 421.036 439.345C427.83 427.294 433.053 438.242 451.074 447.212C469.095 456.181 451.314 458.445 461.907 475.753C472.5 493.06 471.09 476.062 480.281 455.126C489.472 434.19 488.774 472.137 501.376 473.918Z" stroke="white" stroke-width="3.3613" stroke-dasharray="6.72 6.72"/>
</svg>
