<svg width="960" height="900" viewBox="0 0 960 900" fill="none" xmlns="http://www.w3.org/2000/svg">
<path d="M573.269 87.0176C570.112 71.6751 548.467 71.1062 538.039 72.7396C545.184 68.6052 546.62 45.9422 546.445 35.1275C537.368 22.985 510.74 -0.6325 476.845 2.03726C434.475 5.37445 488.681 23.4363 482.248 70.6356C456.655 80.7705 469.669 101.672 461.762 140.461C453.854 179.25 449.881 128.811 412.933 159.737C375.984 190.662 386.387 157.766 354.06 170.058C321.734 182.349 350.86 134.58 309.511 135.4C280.337 156.78 282.915 107.044 225.496 130.648C168.076 154.253 243.791 136.11 261.498 159.889C279.206 183.668 257.715 178.865 231.601 192.696C205.487 206.527 203.107 212.399 193.137 261.095C185.162 300.051 135.011 255.116 110.933 227.779C95.6456 226.141 64.913 228.075 64.2805 248.913C63.4898 274.961 72.9203 270.97 61.044 295.454C49.1677 319.939 52.3422 324.155 80.1601 342.265C107.978 360.375 88.5963 372.053 85.197 380.44C81.7976 388.828 72.2306 385.928 50.2441 416.081C28.2576 446.235 32.8139 442.222 58.0006 447.546C83.1874 452.871 79.47 457.224 71.6511 476.517C63.8322 495.81 52.5432 501.977 47.7839 513.721C43.0245 525.464 44.4104 553.371 37.6556 560.399C30.9008 567.427 4.26564 584.954 2.56991 625.284C0.874122 665.614 5.67746 644.123 24.9704 651.942C44.2633 659.761 54.0519 613.921 92.8851 612.08C112.854 582.085 134.866 583.194 144.23 593.825C153.594 604.456 138.067 618.673 142.128 649.616C146.19 680.559 169.218 643.016 198.577 654.914C227.935 666.813 211.883 648.589 232.417 605.151C252.951 561.713 269.07 565.316 271.476 590.705C273.882 616.094 260.937 616.709 268.199 683.131C287.607 702.714 291.572 680.885 307.756 669.864C323.941 658.844 321.332 641.186 362.907 627.76C404.483 614.334 371.252 640.908 352.214 687.882C333.177 734.856 346.095 702.982 393.068 722.019C440.042 741.056 435.047 656.997 456.855 665.835C478.664 674.674 420.089 693.905 421.16 753.911C394.458 786.06 431.817 775.809 453.741 796.415C475.665 817.02 453.172 773.721 480.306 757.374C507.44 741.027 521.793 763.444 523.201 786.477C524.609 809.509 495.387 804.502 472.901 833.478C450.416 862.453 496.252 836.104 519.036 852.175C541.821 868.246 513.257 866.435 523.076 887.993C532.894 909.551 552.298 893 554.267 866.453C556.236 839.907 597.18 854.547 642.476 872.904C677.252 876.256 648.595 857.806 651.425 826.725C654.249 795.719 672.981 797.402 716.105 801.277L716.417 801.305C740.152 793.345 697.032 776.846 688.48 735.293C679.929 693.74 716.409 729.033 720.899 739.642C725.389 750.251 748.558 755.734 753.318 743.991C758.077 732.247 733.478 708.605 717.946 686.685C702.415 664.765 729.143 663.878 752.515 661.631C775.888 659.384 764.011 683.869 789.29 705.833C814.57 727.797 794.05 694.089 781.874 673.529C769.698 652.969 798.942 653.103 806.628 663.054C814.314 673.005 823.223 672.709 838.366 669.08C853.509 665.452 812.61 641.063 804.651 617.329C796.691 593.594 811.79 599.714 835.277 609.232C858.764 618.751 841.599 586.403 821.988 574.549C802.377 562.695 801.018 566.05 769.73 534.815C738.442 503.58 778.908 512.166 787.747 490.357C794.818 472.909 814.752 465.493 823.835 463.966C827.839 458.101 840.654 446.562 859.878 447.322C879.102 448.081 899.204 460.33 906.852 466.359C899.122 466.156 874.203 468.362 836.373 478.813C789.085 491.876 824.205 530.524 830.642 519.46C837.079 508.397 860.699 488.671 886.455 516.689C912.211 544.706 881.695 528.432 872.857 550.241C855.612 609.661 880.861 564.228 898.021 560.44C915.182 556.652 906.86 538.63 904.317 506.349C901.775 474.067 899.329 494.562 936.096 466.492C972.864 438.422 957.173 414.485 934.233 432.533C911.294 450.58 914.578 430.427 859.15 422.612C803.721 414.797 841.534 415.473 809.844 435.833C778.154 456.194 784.41 447.988 750.839 475.399C717.268 502.81 726.085 485.876 700.107 506.599C674.13 527.322 684.17 500.14 664.877 492.321C645.584 484.502 658.55 479.014 668.361 428.3C678.171 377.587 673.686 403.114 612.16 405.524C584.501 389.431 597.172 375.034 578.899 364.699C560.626 354.363 571.597 344.161 563.045 302.608C554.494 261.055 546.473 288.079 593.125 266.945C639.777 245.812 613.412 240.986 610.463 224.165C607.514 207.345 585.753 224.893 564.761 221.269C543.769 217.644 556.937 204.426 560.606 173.685C564.275 142.944 576.77 167.54 596.376 143.259C615.983 118.978 592.067 129.794 556.952 127.281C521.836 124.769 577.216 106.196 573.269 87.0176Z" stroke="white" stroke-width="3.36136" stroke-dasharray="6.72 6.72"/>
</svg>
