<svg width="186" height="72" viewBox="0 0 186 72" fill="none" xmlns="http://www.w3.org/2000/svg">
<path d="M6.95983 14.2902C8.47497 16.891 9.80634 19.7481 11.893 21.9547C14.457 24.6663 16.2134 20.093 16.8704 18.0425C17.0479 17.4883 17.0587 13.9669 17.0172 14.034C16.4074 15.019 16.5086 17.1876 16.4912 18.1683C16.431 21.5693 16.7074 24.9587 16.8736 28.3522C17.0523 32.0031 18.0008 37.5929 13.0448 38.1777C11.5109 38.3587 -0.723952 36.9232 3.5149 33.2892C7.88242 29.5449 15.0713 31.0106 19.2112 27.018C21.8569 24.4665 22.2393 20.2997 24.7538 17.6133C25.1196 17.2225 28.0648 16.5613 25.9119 17.2112C23.5752 17.9166 22.2765 19.7585 22.1981 22.1586C22.083 25.6779 25.2967 24.4061 27.7989 23.6786C30.8419 22.7937 33.1251 21.5392 31.3291 18.2195C29.539 14.9104 26.0367 13.8848 23.0601 12.0242C15.9548 7.58283 35.7395 2.59201 38.0995 2.00006" stroke="white" stroke-width="2.6687" stroke-linecap="round"/>
<path d="M30.7629 19.8625C34.8213 19.4997 39.8118 19.5597 43.3513 17.2244C45.2187 15.9924 43.9516 13.9093 42.2789 13.3969C40.9118 12.978 35.8043 11.9323 35.1664 13.9854C34.5742 15.8918 33.9398 19.2768 34.894 21.1476C37.1444 25.5602 45.3969 24.7527 47.1583 20.5003C47.7019 19.1877 47.9811 14.9003 48.1086 16.3264C48.5027 20.7343 48.8452 25.0969 49.9164 29.4005C50.6873 32.4977 49.9183 27.3805 49.8669 26.8051C49.5849 23.6514 49.384 20.7786 49.778 17.6426C49.9398 16.3543 49.6903 13.3401 51.5781 13.2746C55.6929 13.1317 55.4875 18.7187 54.7323 21.5012C54.2167 23.4013 52.2527 23.0465 50.6843 23.1867C48.2045 23.4084 52.4207 22.865 52.8777 22.707C55.1328 21.9275 57.3548 19.9567 57.8832 17.4379C58.1539 16.1474 56.7632 13.9461 57.2569 17.0685C57.5001 18.6068 58.506 24.6293 61.2068 23.475C63.0678 22.6797 62.5197 18.456 62.5051 16.812C62.5051 16.8114 63.8653 21.0197 64.4444 22.1693C66.016 25.2888 67.2075 23.8936 68.2631 21.237C69.0279 19.3123 69.5022 16.2337 71.0601 14.7473C71.8051 14.0365 70.2555 14.558 69.5945 14.6892C67.7493 15.0554 68.4245 18.4475 68.5448 19.7937C68.842 23.1178 69.9296 24.5925 73.3969 24.0397C78.3438 23.251 76.9629 17.4735 76.6303 13.753C76.4884 12.1663 76.914 16.9262 77.0558 18.5129C77.2949 21.1875 76.9149 25.0426 80.0441 25.9035C81.6852 26.3551 86.0891 26.8386 86.4263 24.293C86.7321 21.9842 85.0872 19.1879 82.8134 18.849C81.2575 18.6171 80.0155 18.695 79.0446 20.0841C78.4842 20.8858 77.0308 22.558 77.8951 23.3067" stroke="white" stroke-width="2.6687" stroke-linecap="round"/>
<path d="M138.446 17.9832C138.409 16.5148 140.969 17.185 141.989 17.1636C144.246 17.1162 145.459 16.6113 145.047 19.3128C144.804 20.907 144.2 24.2581 142.356 24.9468C141.395 25.306 138.806 25.1576 141.31 24.5375C142.718 24.1888 145.422 23.2443 146.249 24.8731C147.772 27.877 147.727 32.0381 145.999 34.951C144.72 37.1066 141.064 38.4119 139.008 36.3531C136.233 33.5758 143.862 29.8854 145.424 28.7862C148.964 26.2954 150.24 23.9944 152.284 20.4026C153.551 18.1759 155.434 16.3722 158.166 16.3116C158.583 16.3024 161.515 16.9309 160.451 16.6558C158.496 16.1507 156.77 16.0171 155.116 17.407C153.522 18.7468 152.385 21.1525 153.005 23.2177C153.74 25.6614 157.698 25.8132 159.314 24.1621C160.476 22.9742 159.242 18.2516 160.459 19.3747C162.959 21.6804 164.825 24.8523 167.184 27.3436" stroke="white" stroke-width="2.6687" stroke-linecap="round"/>
<path d="M47.5771 41.8038C44.3297 42.0941 39.3638 42.7746 37.8947 46.1917C36.2908 49.9224 44.1323 52.5472 46.5474 50.5902C48.5583 48.9607 47.8678 45.0553 47.672 42.8654C47.5175 41.1362 48.0627 46.3262 48.4949 48.0084C49.4088 51.5658 51.3158 54.7636 52.2724 58.2823C53.0554 61.1625 52.079 63.7189 49.6027 65.4764C48.0023 66.6123 44.7832 67.772 43.1196 66.056C41.8869 64.7845 41.728 61.8959 42.8994 60.547C44.8124 58.344 48.4746 58.072 50.8986 56.6216C53.769 54.9042 54.8295 52.7372 54.8155 49.6727C54.8154 49.6378 57.6843 54.0848 58.2907 54.534C60.754 56.3585 62.3162 42.1979 59.4746 39.6032C58.1634 38.4059 57.1119 43.5338 57.0873 44.1192C56.9773 46.7364 59.4783 48.2442 60.7208 45.4218C61.092 44.5787 61.0869 41.5572 61.8853 43.9801C63.1767 47.899 64.2915 51.283 67.1928 54.3624C68.1164 55.3426 67.9556 52.9027 67.986 52.5749C68.1983 50.2885 68.3899 47.9761 68.7561 45.7066C68.9245 44.6636 69.2819 43.8057 70.3692 43.4445C70.768 43.312 71.9444 43.4732 72.0954 42.9558C72.7578 40.6859 70.1493 41.46 69.1388 42.373C67.1382 44.1805 67.9752 48.6731 69.0679 50.717C71.5304 55.3229 74.1452 51.3207 74.678 47.9861C74.9612 46.2135 75.1159 44.3982 75.0139 42.6057C74.9466 41.4244 74.9724 42.346 75.0455 42.9596C75.4364 46.2424 76.2795 49.424 77.0449 52.6345C77.8302 55.928 79.2208 60.0575 78.3779 63.4836C77.2962 67.8805 67.3368 70.0757 68.2204 64.0795C69.3077 56.7006 79.4867 55.5942 83.4639 50.3217C84.9954 48.2914 83.3793 40.2386 83.604 42.7518C83.9144 46.2241 84.2248 49.6964 84.5353 53.1687C84.6862 54.857 84.7065 55.9841 84.5795 53.4099C84.5516 52.8444 84.0635 47.2605 85.0587 47.3479C86.475 47.4723 87.2954 50.5658 87.8383 51.5358C88.5787 52.8588 89.8783 52.4617 90.9578 51.6582C93.4539 49.8004 93.1781 47.1501 92.6927 44.4138C91.5105 37.7494 86.9899 44.0766 87.2944 47.4825" stroke="white" stroke-width="2.6687" stroke-linecap="round"/>
<path d="M105.005 43.79C102.47 44.0166 102.462 47.501 102.643 49.5275C102.796 51.2336 103.754 51.4676 104.938 50.183C106.455 48.5364 106.466 46.3533 106.279 44.265C106.131 42.6101 107.158 47.4713 107.532 49.0905C108.647 53.9286 109.975 59.4699 108.186 64.32C107.326 66.651 102.143 73.1027 99.1619 69.2715C95.4477 64.4984 106.612 55.8172 109.169 53.1115C112.676 49.3986 114.087 45.9676 113.759 40.9237C113.751 40.7926 113.602 35.7955 113.217 37.6654C112.576 40.7772 112.102 44.0741 112.386 47.2523C112.543 49.0088 114.066 52.7946 116.627 51.3123C118.509 50.2225 116.189 47.0692 115.256 46.1804C113.95 44.937 111.251 45.6119 112.863 47.4814C114.513 49.3957 117.425 48.8137 119.126 47.3745C119.328 47.2041 121.042 44.8985 121.139 45.1335C122.044 47.3393 123.784 56.6109 127.368 51.5298C129.059 49.1323 128.814 45.8781 126.174 44.2983C125.679 44.0026 123.523 42.9972 122.97 43.6788C122.094 44.7599 122.511 46.2212 123.968 46.4207C126.826 46.812 128.341 44.9256 130.499 43.6852C130.652 43.5968 131.712 53.0067 131.771 53.5822C132.106 56.8462 133.533 66.5665 133.414 63.2876C133.259 58.994 132.467 54.6998 131.969 50.439C131.775 48.7789 130.654 44.2995 132.082 42.7735C133.335 41.435 134.733 44.335 134.827 45.1554C135.021 46.8378 134.346 48.249 133.204 49.4453C132.576 50.1027 130.846 50.2772 131.075 51.1531C131.263 51.8735 136.089 49.7853 136.484 49.4012C138.057 47.8725 137.552 45.0128 137.378 43.0702C137.241 41.5305 137.725 45.9899 137.738 46.0729C137.888 47.0452 138.106 50.8714 138.96 51.5806C139.088 51.6866 138.916 51.2517 138.916 51.0863C138.92 50.2855 139.104 49.5516 139.659 48.9361C140.466 48.0424 142.368 48.0247 142.538 46.6857C142.604 46.1643 142.354 43.8223 142.45 44.1795C142.836 45.6147 143.467 49.8701 144.895 50.5971C147.126 51.7331 148.866 42.9596 148.913 43.4885C149.078 45.3401 149.16 47.2195 149.411 49.0609C149.873 52.4489 152.568 47.8835 152.954 46.8417C153.172 46.2513 153.865 43.0553 153.871 43.0679C154.596 44.646 155.376 46.3282 156.366 47.7596C157.109 48.8329 158.985 50.2294 160.382 49.3031C161.518 48.5497 160.503 44.5316 160.403 43.4125C160.216 41.3197 160.165 41.4279 160.793 43.6947C160.992 44.4122 163.01 53.0082 163.192 49.0972C163.222 48.467 162.497 36.9566 165.085 41.4312C165.584 42.2952 164.975 44.0261 165.061 44.9893C165.156 46.053 165.235 47.0653 165.021 48.1184C164.853 48.9438 165.62 46.5367 165.77 46.2848C166.339 45.3265 166.88 43.9644 168.037 44.859C169.622 46.0847 170.782 47.5851 171.613 49.3863C173.091 52.59 172.383 44.2172 172.349 43.5902C172.263 41.967 172.202 40.4593 174.26 40.7242C174.978 40.8166 176.139 41.1331 176.826 41.3555C177.284 41.5039 178.337 42.2371 178.209 41.7754C177.904 40.6728 176.275 39.507 175.185 39.3279C173.216 39.0046 173.663 44.6016 173.732 45.5277C173.781 46.2018 173.701 48.8282 174.81 48.9192C176.764 49.0794 178.238 48.5833 178.551 46.6144C179.089 43.2218 183.846 50.7097 184.59 52.167" stroke="white" stroke-width="2.6687" stroke-linecap="round"/>
<path d="M94.8867 47.8319C96.5348 48.082 97.9739 48.4415 99.4753 49.2079" stroke="white" stroke-width="2.6687" stroke-linecap="round"/>
<path d="M97.6719 19.0018C97.9114 20.3769 98.3893 21.6959 98.6816 23.061C98.9177 24.1637 98.9763 27.5055 99.2113 26.4024C99.5515 24.8057 100.533 18.133 102.802 20.3182C104.943 22.379 105.14 24.8062 106.395 27.1664C106.694 27.7293 106.884 25.9816 107.018 25.3586C107.295 24.0787 107.915 22.7377 107.867 21.41C107.759 18.4583 111.855 19.8108 113.441 21.2343C115.828 23.376 111.978 31.1791 110.574 30.2506C110.172 29.9846 112.777 27.7072 112.939 27.5034C113.877 26.3232 114.451 24.6509 114.63 23.1567C114.702 22.546 114.515 21.9325 114.512 21.3231C114.506 20.3633 115.791 22.8007 116.156 23.6888C116.767 25.1796 117.014 27.0086 117.825 28.4037C117.994 28.6952 118.206 25.9422 118.229 25.6935C118.408 23.7553 118.623 21.5834 119.965 20.0517C120.046 19.9592 121.126 18.9261 120.506 19.6346C119.236 21.0841 120.149 24.2288 120.737 25.8381C121.699 28.4706 124.256 28.0621 126.611 28.2406C128.325 28.3705 124.869 28.6111 124.498 28.637C121.957 28.8141 120.317 25.6636 119.078 23.8195C116.034 19.2899 120.966 18.6011 124.367 19.9348" stroke="white" stroke-width="2.6687" stroke-linecap="round"/>
</svg>
